<?xml version="1.0" encoding="utf-8"?>
<!-- Generator: Adobe Illustrator 16.0.4, SVG Export Plug-In . SVG Version: 6.00 Build 0)  -->
<!DOCTYPE svg PUBLIC "-//W3C//DTD SVG 1.1//EN" "http://www.w3.org/Graphics/SVG/1.1/DTD/svg11.dtd">
<svg version="1.1" xmlns="http://www.w3.org/2000/svg" xmlns:xlink="http://www.w3.org/1999/xlink" x="0px" y="0px" width="252px"
	 height="180px" viewBox="0 0 252 180" enable-background="new 0 0 252 180" xml:space="preserve">
<symbol  id="defensive-palyer_2" viewBox="-7 -6.648 14 12.293">
	
		<use xlink:href="#offensive-player"  width="23" height="21.75" x="-11" y="-11.375" transform="matrix(0.5652 0 0 0.5652 0.2148 -0.2192)" overflow="visible"/>
	<g>
		<path fill="#010101" d="M-3.538-4.452c0,0,0.376,0.629,0.986,1.529c0.3,0.454,0.648,0.985,1.043,1.534
			c0.382,0.561,0.823,1.126,1.252,1.702c0.441,0.564,0.764,1.248,1.221,1.733C1.43,2.523,1.993,2.84,2.506,3.081
			C3.033,3.31,3.51,3.46,3.889,3.521c0.37,0.07,0.62,0.071,0.62,0.071L4.721,3.38c0,0-0.001-0.25-0.071-0.62
			c-0.061-0.379-0.212-0.856-0.44-1.383C3.968,0.864,3.651,0.302,3.174-0.164C2.688-0.621,2.005-0.943,1.44-1.384
			C0.864-1.813,0.298-2.253-0.262-2.636C-0.811-3.03-1.343-3.378-1.797-3.679c-0.899-0.609-1.529-0.985-1.529-0.985L-3.538-4.452z"
			/>
	</g>
	<g>
		<path fill="#010101" d="M4.509-4.098c0,0-0.63,0.376-1.529,0.985C2.526-2.812,1.994-2.465,1.446-2.07
			C0.885-1.688,0.32-1.248-0.256-0.819c-0.565,0.441-1.248,0.764-1.734,1.22C-2.467,0.867-2.785,1.43-3.026,1.943
			c-0.228,0.526-0.379,1.004-0.44,1.383c-0.07,0.37-0.071,0.62-0.071,0.62l0.212,0.212c0,0,0.25-0.001,0.62-0.071
			c0.379-0.061,0.856-0.211,1.383-0.44c0.513-0.241,1.076-0.558,1.542-1.035c0.457-0.486,0.78-1.169,1.221-1.733
			c0.43-0.576,0.87-1.142,1.252-1.702c0.395-0.548,0.743-1.08,1.043-1.534c0.61-0.899,0.986-1.529,0.986-1.529L4.509-4.098z"/>
	</g>
	<polygon display="none" fill="none" points="-7,5 7,5 7,-6 -7,-6 	"/>
</symbol>
<symbol  id="offensive-player" viewBox="-11 -11.375 23 21.75">
	<path fill="#FFFFFF" stroke="#010101" stroke-width="0.75" stroke-miterlimit="10" d="M-9-1c0-5.521,4.476-10,10-10
		c5.521,0,10,4.479,10,10C11,4.523,6.521,9,1,9C-4.524,9-9,4.523-9-1z"/>
	<path fill="#FFFFFF" stroke="#010101" stroke-width="0.75" stroke-miterlimit="10" d="M-10,0c0-5.521,4.476-10,10-10
		c5.521,0,10,4.479,10,10c0,5.523-4.479,10-10,10C-5.524,10-10,5.523-10,0z"/>
	<polygon display="none" fill="none" points="-11,10 12,10 12,-11 -11,-11 	"/>
</symbol>
<symbol  id="wholes_1_" viewBox="-66.953 -3.154 133.906 6.308">
	<text transform="matrix(1 0 0 -1 -1.9111 -1.6382)" font-family="'OpenSans'" font-size="5.5922">0</text>
	<text transform="matrix(1 0 0 -1 13.4219 -1.6382)" font-family="'OpenSans'" font-size="5.5922">2</text>
	<text transform="matrix(1 0 0 -1 30.2002 -1.6382)" font-family="'OpenSans'" font-size="5.5922">4</text>
	<text transform="matrix(1 0 0 -1 46.9785 -1.6382)" font-family="'OpenSans'" font-size="5.5922">6</text>
	<text transform="matrix(1 0 0 -1 63.7559 -1.6382)" font-family="'OpenSans'" font-size="5.5922">8</text>
	<text transform="matrix(1 0 0 -1 -66.9531 -1.6382)" font-family="'OpenSans'" font-size="5.5922">7</text>
	<text transform="matrix(1 0 0 -1 -50.1748 -1.6382)" font-family="'OpenSans'" font-size="5.5922">5</text>
	<text transform="matrix(1 0 0 -1 -33.3965 -1.6382)" font-family="'OpenSans'" font-size="5.5922">3</text>
	<text transform="matrix(1 0 0 -1 -16.6191 -1.6382)" font-family="'OpenSans'" font-size="5.5922">1</text>
</symbol>
<g id="Guides">
</g>
<g id="grids">
	
		<line opacity="0.5" fill="none" stroke="#010101" stroke-miterlimit="10" stroke-dasharray="2,2" x1="261" y1="57.5" x2="-9" y2="57.5"/>
	
		<line opacity="0.5" fill="none" stroke="#010101" stroke-miterlimit="10" stroke-dasharray="2,2" x1="66.5" y1="-9" x2="66.5" y2="128"/>
	
		<line opacity="0.5" fill="none" stroke="#010101" stroke-miterlimit="10" stroke-dasharray="2,2" x1="187.5" y1="-9" x2="187.5" y2="128"/>
	
		<line opacity="0.5" fill="none" stroke="#010101" stroke-miterlimit="10" stroke-dasharray="2,2" x1="261" y1="127.5" x2="-9" y2="127.5"/>
	
		<line opacity="0.5" fill="none" stroke="#010101" stroke-miterlimit="10" stroke-dasharray="2,2" x1="126.5" y1="127" x2="126.5" y2="189"/>
	
		<line opacity="0.5" fill="none" stroke="#010101" stroke-miterlimit="10" stroke-dasharray="2,2" x1="126.5" y1="-9" x2="126.5" y2="57"/>
</g>
<g id="wholes">
	
		<use xlink:href="#wholes_1_"  width="133.906" height="6.308" x="-66.953" y="-3.154" transform="matrix(1 0 0 -1 126.4268 175.3828)" overflow="visible"/>
</g>
<g id="Layer_2">
	<g id="d-formation-card_2">
		<text transform="matrix(1 0 0 1 8.1968 16.6992)" font-family="'Seravek-Light'" font-size="10">Goal Line Defense</text>
		<text transform="matrix(1 0 0 1 3.5156 134.873)" font-family="'OpenSans'" font-size="5.5922">5</text>
		<text transform="matrix(1 0 0 1 1.917 63.791)" font-family="'OpenSans'" font-size="5.5922">12</text>
		
			<use xlink:href="#defensive-palyer_2"  width="14" height="12.293" x="-7" y="-6.648" transform="matrix(1 0 0 -1 126 164)" overflow="visible"/>
		
			<use xlink:href="#defensive-palyer_2"  width="14" height="12.293" x="-7" y="-6.648" transform="matrix(1 0 0 -1 147 164)" overflow="visible"/>
		
			<use xlink:href="#defensive-palyer_2"  width="14" height="12.293" x="-7" y="-6.648" transform="matrix(1 0 0 -1 230 159)" overflow="visible"/>
		
			<use xlink:href="#defensive-palyer_2"  width="14" height="12.293" x="-7" y="-6.648" transform="matrix(1 0 0 -1 104 164)" overflow="visible"/>
		
			<use xlink:href="#defensive-palyer_2"  width="14" height="12.293" x="-7" y="-6.648" transform="matrix(1 0 0 -1 66 150)" overflow="visible"/>
		
			<use xlink:href="#defensive-palyer_2"  width="14" height="12.293" x="-7" y="-6.648" transform="matrix(1 0 0 -1 102 126)" overflow="visible"/>
		
			<use xlink:href="#defensive-palyer_2"  width="14" height="12.293" x="-7" y="-6.648" transform="matrix(1 0 0 -1 154 125)" overflow="visible"/>
		
			<use xlink:href="#defensive-palyer_2"  width="14" height="12.293" x="-7" y="-6.648" transform="matrix(1 0 0 -1 189 149)" overflow="visible"/>
		
			<use xlink:href="#defensive-palyer_2"  width="14" height="12.293" x="-7" y="-6.648" transform="matrix(1 0 0 -1 76 164)" overflow="visible"/>
		
			<use xlink:href="#defensive-palyer_2"  width="14" height="12.293" x="-7" y="-6.648" transform="matrix(1 0 0 -1 175 164)" overflow="visible"/>
		
			<use xlink:href="#defensive-palyer_2"  width="14" height="12.293" x="-7" y="-6.648" transform="matrix(1 0 0 -1 20 159)" overflow="visible"/>
	</g>
</g>
</svg>
