<?xml version="1.0" encoding="utf-8"?>
<!-- Generator: Adobe Illustrator 16.0.4, SVG Export Plug-In . SVG Version: 6.00 Build 0)  -->
<!DOCTYPE svg PUBLIC "-//W3C//DTD SVG 1.1//EN" "http://www.w3.org/Graphics/SVG/1.1/DTD/svg11.dtd">
<svg version="1.1" xmlns="http://www.w3.org/2000/svg" xmlns:xlink="http://www.w3.org/1999/xlink" x="0px" y="0px" width="792px"
	 height="612px" viewBox="0 0 792 612" enable-background="new 0 0 792 612" xml:space="preserve">
<symbol  id="playcard" viewBox="-127 -91 253 181">
	<path fill="#FFFFFF" stroke="#BDCCD4" stroke-miterlimit="10" d="M125.5-80.5c0-5.523-4.477-10-10-10h-232c-5.523,0-10,4.477-10,10
		v160c0,5.523,4.477,10,10,10h232c5.523,0,10-4.477,10-10V-80.5z"/>
	<polygon display="none" fill="none" points="-127,90 126,90 126,-91 -127,-91 	"/>
</symbol>
<symbol  id="yards-grid_3_" viewBox="-200.601 -240.5 401.201 481">
	<polygon fill="none" stroke="#000000" stroke-miterlimit="10" points="200.1,-240 -199.9,-240 -199.9,240 200.1,240 	"/>
	<g id="yards-grid_2_">
		<line fill="none" stroke="#010101" stroke-miterlimit="10" x1="-200.399" y1="160" x2="199.6" y2="160"/>
		<line fill="none" stroke="#010101" stroke-miterlimit="10" x1="-200.399" y1="160" x2="199.6" y2="160"/>
		<line fill="none" stroke="#010101" stroke-miterlimit="10" x1="-200.399" y1="120" x2="199.6" y2="120"/>
		<line fill="none" stroke="#010101" stroke-miterlimit="10" x1="-200.399" y1="120" x2="199.6" y2="120"/>
		<line fill="none" stroke="#010101" stroke-miterlimit="10" x1="-200.399" y1="80" x2="199.6" y2="80"/>
		<line fill="none" stroke="#010101" stroke-miterlimit="10" x1="-200.399" y1="80" x2="199.6" y2="80"/>
		<line fill="none" stroke="#010101" stroke-miterlimit="10" x1="-200.399" y1="40" x2="199.6" y2="40"/>
		<line fill="none" stroke="#010101" stroke-miterlimit="10" x1="-200.399" y1="40" x2="199.6" y2="40"/>
		<line fill="none" stroke="#010101" stroke-miterlimit="10" x1="-200.399" y1="0" x2="199.6" y2="0"/>
		<line fill="none" stroke="#010101" stroke-miterlimit="10" x1="-200.399" y1="0" x2="199.6" y2="0"/>
		<line fill="none" stroke="#010101" stroke-miterlimit="10" x1="-200.399" y1="-40" x2="199.6" y2="-40"/>
		<line fill="none" stroke="#010101" stroke-miterlimit="10" x1="-200.399" y1="-40" x2="199.6" y2="-40"/>
		<line fill="none" stroke="#010101" stroke-miterlimit="10" x1="-200.399" y1="-80" x2="199.6" y2="-80"/>
		<line fill="none" stroke="#010101" stroke-miterlimit="10" x1="-200.399" y1="-80" x2="199.6" y2="-80"/>
		<line fill="none" stroke="#010101" stroke-miterlimit="10" x1="-200.399" y1="-120" x2="199.6" y2="-120"/>
		<line fill="none" stroke="#010101" stroke-miterlimit="10" x1="-200.399" y1="-120" x2="199.6" y2="-120"/>
		<line fill="none" stroke="#010101" stroke-miterlimit="10" x1="-200.399" y1="-160" x2="199.6" y2="-160"/>
		<line fill="none" stroke="#010101" stroke-miterlimit="10" x1="-200.399" y1="-160" x2="199.6" y2="-160"/>
		<g>
			<line fill="none" stroke="#010101" stroke-miterlimit="10" x1="-119.899" y1="200.5" x2="-119.899" y2="-199.5"/>
			<line fill="none" stroke="#010101" stroke-miterlimit="10" x1="-79.899" y1="200.5" x2="-79.899" y2="-199.5"/>
			<line fill="none" stroke="#010101" stroke-miterlimit="10" x1="-39.899" y1="200.5" x2="-39.899" y2="-199.5"/>
			<line fill="none" stroke="#010101" stroke-miterlimit="10" x1="0.101" y1="200.5" x2="0.101" y2="-199.5"/>
			<line fill="none" stroke="#010101" stroke-miterlimit="10" x1="40.101" y1="200.5" x2="40.101" y2="-199.5"/>
			<line fill="none" stroke="#010101" stroke-miterlimit="10" x1="80.101" y1="200.5" x2="80.101" y2="-199.5"/>
			<line fill="none" stroke="#010101" stroke-miterlimit="10" x1="120.101" y1="200.5" x2="120.101" y2="-199.5"/>
			<line fill="none" stroke="#010101" stroke-miterlimit="10" x1="160.1" y1="200.5" x2="160.1" y2="-199.5"/>
			<line fill="none" stroke="#010101" stroke-miterlimit="10" x1="-119.899" y1="200.5" x2="-119.899" y2="-199.5"/>
			<line fill="none" stroke="#010101" stroke-miterlimit="10" x1="-79.899" y1="200.5" x2="-79.899" y2="-199.5"/>
			<line fill="none" stroke="#010101" stroke-miterlimit="10" x1="-39.899" y1="200.5" x2="-39.899" y2="-199.5"/>
			<line fill="none" stroke="#010101" stroke-miterlimit="10" x1="0.101" y1="200.5" x2="0.101" y2="-199.5"/>
			<line fill="none" stroke="#010101" stroke-miterlimit="10" x1="40.101" y1="200.5" x2="40.101" y2="-199.5"/>
			<line fill="none" stroke="#010101" stroke-miterlimit="10" x1="80.101" y1="200.5" x2="80.101" y2="-199.5"/>
			<line fill="none" stroke="#010101" stroke-miterlimit="10" x1="120.101" y1="200.5" x2="120.101" y2="-199.5"/>
			<line fill="none" stroke="#010101" stroke-miterlimit="10" x1="160.1" y1="200.5" x2="160.1" y2="-199.5"/>
			<line fill="none" stroke="#010101" stroke-miterlimit="10" x1="-159.899" y1="200.5" x2="-159.899" y2="-199.5"/>
			<line fill="none" stroke="#010101" stroke-miterlimit="10" x1="-159.899" y1="200.5" x2="-159.899" y2="-199.5"/>
		</g>
		
			<text transform="matrix(1 0 0 -1 -167.3789 210.7031)" fill="#FFFFFF" font-family="'StencilStd'" font-size="22" letter-spacing="31">END zONE</text>
		
			<text transform="matrix(-1 0 0 1 166.9521 -212.0742)" fill="#FFFFFF" font-family="'StencilStd'" font-size="22" letter-spacing="31">END ZONE</text>
		<text transform="matrix(1 0 0 -1 171.4824 -65.2441)" fill="#010101" font-family="'StencilStd'" font-size="14">40</text>
		<text transform="matrix(1 0 0 -1 171.4824 14.8945)" fill="#010101" font-family="'StencilStd'" font-size="14">40</text>
		<text transform="matrix(1 0 0 -1 171.4824 -105.3145)" fill="#010101" font-family="'StencilStd'" font-size="14">30</text>
		<text transform="matrix(1 0 0 -1 171.4824 54.9629)" fill="#010101" font-family="'StencilStd'" font-size="14">30</text>
		<text transform="matrix(1 0 0 -1 171.4824 -145.3828)" fill="#010101" font-family="'StencilStd'" font-size="14">20</text>
		<text transform="matrix(1 0 0 -1 171.4824 95.0332)" fill="#010101" font-family="'StencilStd'" font-size="14">20</text>
		<text transform="matrix(1 0 0 -1 171.4824 -185.4531)" fill="#010101" font-family="'StencilStd'" font-size="14">10</text>
		<text transform="matrix(1 0 0 -1 171.4824 135.1016)" fill="#010101" font-family="'StencilStd'" font-size="14">10</text>
		<text transform="matrix(1 0 0 -1 -188.5215 -25.1758)" fill="#010101" font-family="'StencilStd'" font-size="14">41</text>
		<text transform="matrix(1 0 0 -1 -188.5215 14.8945)" fill="#010101" font-family="'StencilStd'" font-size="14">49</text>
		<text transform="matrix(1 0 0 -1 -188.5215 -65.2441)" fill="#010101" font-family="'StencilStd'" font-size="14">31</text>
		<text transform="matrix(1 0 0 -1 -188.5215 -105.3145)" fill="#010101" font-family="'StencilStd'" font-size="14">21</text>
		<text transform="matrix(1 0 0 -1 -188.5215 -145.3828)" fill="#010101" font-family="'StencilStd'" font-size="14">11</text>
		<text transform="matrix(1 0 0 -1 -184.1113 -185.4531)" fill="#010101" font-family="'StencilStd'" font-size="14">1</text>
		<text transform="matrix(1 0 0 -1 -148.5488 -25.1758)" fill="#010101" font-family="'StencilStd'" font-size="14">42</text>
		<text transform="matrix(1 0 0 -1 -148.5488 -65.2441)" fill="#010101" font-family="'StencilStd'" font-size="14">32</text>
		<text transform="matrix(1 0 0 -1 -148.5488 -105.3145)" fill="#010101" font-family="'StencilStd'" font-size="14">22</text>
		<text transform="matrix(1 0 0 -1 -148.5488 -145.3828)" fill="#010101" font-family="'StencilStd'" font-size="14">12</text>
		<text transform="matrix(1 0 0 -1 -144.1113 -185.4531)" fill="#010101" font-family="'StencilStd'" font-size="14">2</text>
		<text transform="matrix(1 0 0 -1 -104.1113 -185.4531)" fill="#010101" font-family="'StencilStd'" font-size="14">3</text>
		<text transform="matrix(1 0 0 -1 -64.1113 -185.4531)" fill="#010101" font-family="'StencilStd'" font-size="14">4</text>
		<text transform="matrix(1 0 0 -1 -24.1113 -185.4531)" fill="#010101" font-family="'StencilStd'" font-size="14">5</text>
		<text transform="matrix(1 0 0 -1 15.8906 -185.4531)" fill="#010101" font-family="'StencilStd'" font-size="14">6</text>
		<text transform="matrix(1 0 0 -1 55.8906 -185.4531)" fill="#010101" font-family="'StencilStd'" font-size="14">7</text>
		<text transform="matrix(1 0 0 -1 95.8906 -185.4531)" fill="#010101" font-family="'StencilStd'" font-size="14">8</text>
		<text transform="matrix(1 0 0 -1 135.8145 -185.4531)" fill="#010101" font-family="'StencilStd'" font-size="14">9</text>
		<text transform="matrix(1 0 0 -1 -109.0645 -145.3828)" fill="#010101" font-family="'StencilStd'" font-size="14">13</text>
		<text transform="matrix(1 0 0 -1 -69.2207 -145.3828)" fill="#010101" font-family="'StencilStd'" font-size="14">14</text>
		<text transform="matrix(1 0 0 -1 -29.375 -145.3828)" fill="#010101" font-family="'StencilStd'" font-size="14">15</text>
		<text transform="matrix(1 0 0 -1 10.4707 -145.3828)" fill="#010101" font-family="'StencilStd'" font-size="14">16</text>
		<text transform="matrix(1 0 0 -1 50.3184 -145.3828)" fill="#010101" font-family="'StencilStd'" font-size="14">17</text>
		<text transform="matrix(1 0 0 -1 90.1621 -145.3828)" fill="#010101" font-family="'StencilStd'" font-size="14">18</text>
		<text transform="matrix(1 0 0 -1 131.4043 -145.3828)" fill="#010101" font-family="'StencilStd'" font-size="14">19</text>
		<text transform="matrix(1 0 0 -1 -111.4434 -105.3145)" fill="#010101" font-family="'StencilStd'" font-size="14"> 23</text>
		<text transform="matrix(1 0 0 -1 -71.5996 -105.3145)" fill="#010101" font-family="'StencilStd'" font-size="14"> 24</text>
		<text transform="matrix(1 0 0 -1 -31.7559 -105.3145)" fill="#010101" font-family="'StencilStd'" font-size="14"> 25</text>
		<text transform="matrix(1 0 0 -1 8.0918 -105.3145)" fill="#010101" font-family="'StencilStd'" font-size="14"> 26</text>
		<text transform="matrix(1 0 0 -1 47.9375 -105.3145)" fill="#010101" font-family="'StencilStd'" font-size="14"> 27</text>
		<text transform="matrix(1 0 0 -1 87.7832 -105.3145)" fill="#010101" font-family="'StencilStd'" font-size="14"> 28</text>
		<text transform="matrix(1 0 0 -1 131.4043 -105.3145)" fill="#010101" font-family="'StencilStd'" font-size="14">29</text>
		<text transform="matrix(1 0 0 -1 -109.0645 -65.2441)" fill="#010101" font-family="'StencilStd'" font-size="14">33</text>
		<text transform="matrix(1 0 0 -1 -69.2207 -65.2441)" fill="#010101" font-family="'StencilStd'" font-size="14">34</text>
		<text transform="matrix(1 0 0 -1 -29.375 -65.2441)" fill="#010101" font-family="'StencilStd'" font-size="14">35</text>
		<text transform="matrix(1 0 0 -1 10.4707 -65.2441)" fill="#010101" font-family="'StencilStd'" font-size="14">36</text>
		<text transform="matrix(1 0 0 -1 50.3184 -65.2441)" fill="#010101" font-family="'StencilStd'" font-size="14">37</text>
		<text transform="matrix(1 0 0 -1 90.1621 -65.2441)" fill="#010101" font-family="'StencilStd'" font-size="14">38</text>
		<text transform="matrix(1 0 0 -1 131.4043 -65.2441)" fill="#010101" font-family="'StencilStd'" font-size="14">39</text>
		<text transform="matrix(1 0 0 -1 -109.0645 -25.1758)" fill="#010101" font-family="'StencilStd'" font-size="14">43</text>
		<text transform="matrix(1 0 0 -1 -69.2207 -25.1758)" fill="#010101" font-family="'StencilStd'" font-size="14">44</text>
		<text transform="matrix(1 0 0 -1 -29.375 -25.1758)" fill="#010101" font-family="'StencilStd'" font-size="14">45</text>
		<text transform="matrix(1 0 0 -1 10.4707 -25.1758)" fill="#010101" font-family="'StencilStd'" font-size="14">46</text>
		<text transform="matrix(1 0 0 -1 50.3184 -25.1758)" fill="#010101" font-family="'StencilStd'" font-size="14">47</text>
		<text transform="matrix(1 0 0 -1 90.1621 -25.1758)" fill="#010101" font-family="'StencilStd'" font-size="14">48</text>
		<text transform="matrix(1 0 0 -1 131.4043 -25.1758)" fill="#010101" font-family="'StencilStd'" font-size="14">49</text>
		<text transform="matrix(1 0 0 -1 -148.5488 14.8945)" fill="#010101" font-family="'StencilStd'" font-size="14">48</text>
		<text transform="matrix(1 0 0 -1 -109.0645 14.8945)" fill="#010101" font-family="'StencilStd'" font-size="14">47</text>
		<text transform="matrix(1 0 0 -1 -69.2207 14.8945)" fill="#010101" font-family="'StencilStd'" font-size="14">46</text>
		<text transform="matrix(1 0 0 -1 -29.375 14.8945)" fill="#010101" font-family="'StencilStd'" font-size="14">45</text>
		<text transform="matrix(1 0 0 -1 10.4707 14.8945)" fill="#010101" font-family="'StencilStd'" font-size="14">44</text>
		<text transform="matrix(1 0 0 -1 50.3184 14.8945)" fill="#010101" font-family="'StencilStd'" font-size="14">43</text>
		<text transform="matrix(1 0 0 -1 90.1621 14.8945)" fill="#010101" font-family="'StencilStd'" font-size="14">42</text>
		<text transform="matrix(1 0 0 -1 131.4043 14.8945)" fill="#010101" font-family="'StencilStd'" font-size="14">41</text>
		<text transform="matrix(1 0 0 -1 -188.5215 54.9629)" fill="#010101" font-family="'StencilStd'" font-size="14">39</text>
		<text transform="matrix(1 0 0 -1 -148.5488 54.9629)" fill="#010101" font-family="'StencilStd'" font-size="14">38</text>
		<text transform="matrix(1 0 0 -1 -109.0645 54.9629)" fill="#010101" font-family="'StencilStd'" font-size="14">37</text>
		<text transform="matrix(1 0 0 -1 -69.2207 54.9629)" fill="#010101" font-family="'StencilStd'" font-size="14">36</text>
		<text transform="matrix(1 0 0 -1 -29.375 54.9629)" fill="#010101" font-family="'StencilStd'" font-size="14">35</text>
		<text transform="matrix(1 0 0 -1 10.4707 54.9629)" fill="#010101" font-family="'StencilStd'" font-size="14">34</text>
		<text transform="matrix(1 0 0 -1 50.3184 54.9629)" fill="#010101" font-family="'StencilStd'" font-size="14">33</text>
		<text transform="matrix(1 0 0 -1 90.1621 54.9629)" fill="#010101" font-family="'StencilStd'" font-size="14">32</text>
		<text transform="matrix(1 0 0 -1 131.4043 54.9629)" fill="#010101" font-family="'StencilStd'" font-size="14">31</text>
		<text transform="matrix(1 0 0 -1 -188.5215 95.0332)" fill="#010101" font-family="'StencilStd'" font-size="14">29</text>
		<text transform="matrix(1 0 0 -1 -148.5488 95.0332)" fill="#010101" font-family="'StencilStd'" font-size="14">28</text>
		<text transform="matrix(1 0 0 -1 -109.0645 95.0332)" fill="#010101" font-family="'StencilStd'" font-size="14">27</text>
		<text transform="matrix(1 0 0 -1 -69.2207 95.0332)" fill="#010101" font-family="'StencilStd'" font-size="14">26</text>
		<text transform="matrix(1 0 0 -1 -29.375 95.0332)" fill="#010101" font-family="'StencilStd'" font-size="14">25</text>
		<text transform="matrix(1 0 0 -1 10.4707 95.0332)" fill="#010101" font-family="'StencilStd'" font-size="14">24</text>
		<text transform="matrix(1 0 0 -1 50.3184 95.0332)" fill="#010101" font-family="'StencilStd'" font-size="14">23</text>
		<text transform="matrix(1 0 0 -1 90.1621 95.0332)" fill="#010101" font-family="'StencilStd'" font-size="14">22</text>
		<text transform="matrix(1 0 0 -1 131.4043 95.0332)" fill="#010101" font-family="'StencilStd'" font-size="14">21</text>
		<text transform="matrix(1 0 0 -1 -188.5215 135.1016)" fill="#010101" font-family="'StencilStd'" font-size="14">19</text>
		<text transform="matrix(1 0 0 -1 -148.5488 135.1016)" fill="#010101" font-family="'StencilStd'" font-size="14">18</text>
		<text transform="matrix(1 0 0 -1 -109.0645 135.1016)" fill="#010101" font-family="'StencilStd'" font-size="14">17</text>
		<text transform="matrix(1 0 0 -1 -69.2207 135.1016)" fill="#010101" font-family="'StencilStd'" font-size="14">16</text>
		<text transform="matrix(1 0 0 -1 -29.375 135.1016)" fill="#010101" font-family="'StencilStd'" font-size="14">15</text>
		<text transform="matrix(1 0 0 -1 10.4707 135.1016)" fill="#010101" font-family="'StencilStd'" font-size="14">14</text>
		<text transform="matrix(1 0 0 -1 50.3184 135.1016)" fill="#010101" font-family="'StencilStd'" font-size="14">13</text>
		<text transform="matrix(1 0 0 -1 90.1621 135.1016)" fill="#010101" font-family="'StencilStd'" font-size="14">12</text>
		<text transform="matrix(1 0 0 -1 131.4043 135.1016)" fill="#010101" font-family="'StencilStd'" font-size="14">11</text>
		<text transform="matrix(1 0 0 -1 -184.1113 175.6309)" fill="#010101" font-family="'StencilStd'" font-size="14">9</text>
		<text transform="matrix(1 0 0 -1 -144.1387 175.6309)" fill="#010101" font-family="'StencilStd'" font-size="14">8</text>
		<text transform="matrix(1 0 0 -1 -104.6543 175.6309)" fill="#010101" font-family="'StencilStd'" font-size="14">7</text>
		<text transform="matrix(1 0 0 -1 -64.8105 175.6309)" fill="#010101" font-family="'StencilStd'" font-size="14">6</text>
		<text transform="matrix(1 0 0 -1 -24.9648 175.6309)" fill="#010101" font-family="'StencilStd'" font-size="14">5</text>
		<text transform="matrix(1 0 0 -1 14.8809 175.6309)" fill="#010101" font-family="'StencilStd'" font-size="14">4</text>
		<text transform="matrix(1 0 0 -1 54.7266 175.6309)" fill="#010101" font-family="'StencilStd'" font-size="14">3</text>
		<text transform="matrix(1 0 0 -1 94.5723 175.6309)" fill="#010101" font-family="'StencilStd'" font-size="14">2</text>
		<text transform="matrix(1 0 0 -1 135.8145 175.6309)" fill="#010101" font-family="'StencilStd'" font-size="14">1</text>
		<text transform="matrix(1 0 0 -1 171.4824 -25.1758)" fill="#010101" font-family="'StencilStd'" font-size="14">50</text>
		<line fill="none" stroke="#010101" stroke-miterlimit="10" x1="-200.399" y1="-200" x2="199.6" y2="-200"/>
		<line fill="none" stroke="#010101" stroke-miterlimit="10" x1="-200.399" y1="200" x2="199.6" y2="200"/>
	</g>
</symbol>
<g id="field">
</g>
<g id="Down">
</g>
<g id="Card_Place_Holders">
</g>
<g id="Layer_10">
</g>
<g id="Layer_5">
	<g id="field_1_">
	</g>
	<g id="Layer_8">
	</g>
</g>
<g id="Layer_9">
</g>
<g id="Layer_11">
	<rect fill="#C9203D" width="792" height="612"/>
	<g>
		<line opacity="0.5" fill="none" stroke="#FFFFFF" stroke-width="2" stroke-miterlimit="10" x1="720" y1="0" x2="720" y2="612"/>
		<line opacity="0.5" fill="none" stroke="#FFFFFF" stroke-width="2" stroke-miterlimit="10" x1="648" y1="0" x2="648" y2="612"/>
		<line opacity="0.5" fill="none" stroke="#FFFFFF" stroke-width="2" stroke-miterlimit="10" x1="576" y1="0" x2="576" y2="612"/>
		<line opacity="0.5" fill="none" stroke="#FFFFFF" stroke-width="2" stroke-miterlimit="10" x1="504" y1="0" x2="504" y2="612"/>
		<line opacity="0.5" fill="none" stroke="#FFFFFF" stroke-width="2" stroke-miterlimit="10" x1="432" y1="0" x2="432" y2="612"/>
		<line opacity="0.5" fill="none" stroke="#FFFFFF" stroke-width="2" stroke-miterlimit="10" x1="360" y1="0" x2="360" y2="612"/>
		<line opacity="0.5" fill="none" stroke="#FFFFFF" stroke-width="2" stroke-miterlimit="10" x1="288" y1="0" x2="288" y2="612"/>
		<line opacity="0.5" fill="none" stroke="#FFFFFF" stroke-width="2" stroke-miterlimit="10" x1="216" y1="0" x2="216" y2="612"/>
		<line opacity="0.5" fill="none" stroke="#FFFFFF" stroke-width="2" stroke-miterlimit="10" x1="72" y1="0" x2="72" y2="612"/>
		<line opacity="0.5" fill="none" stroke="#FFFFFF" stroke-width="2" stroke-miterlimit="10" x1="144" y1="0" x2="144" y2="612"/>
	</g>
	<g>
		<line opacity="0.5" fill="none" stroke="#FFFFFF" stroke-width="2" stroke-miterlimit="10" x1="763" y1="15" x2="763" y2="25"/>
		<line opacity="0.5" fill="none" stroke="#FFFFFF" stroke-width="2" stroke-miterlimit="10" x1="778" y1="15" x2="778" y2="25"/>
		<line opacity="0.5" fill="none" stroke="#FFFFFF" stroke-width="2" stroke-miterlimit="10" x1="749" y1="15" x2="749" y2="25"/>
		<line opacity="0.5" fill="none" stroke="#FFFFFF" stroke-width="2" stroke-miterlimit="10" x1="734" y1="15" x2="734" y2="25"/>
		<line opacity="0.5" fill="none" stroke="#FFFFFF" stroke-width="2" stroke-miterlimit="10" x1="691" y1="15" x2="691" y2="25"/>
		<line opacity="0.5" fill="none" stroke="#FFFFFF" stroke-width="2" stroke-miterlimit="10" x1="706" y1="15" x2="706" y2="25"/>
		<line opacity="0.5" fill="none" stroke="#FFFFFF" stroke-width="2" stroke-miterlimit="10" x1="677" y1="15" x2="677" y2="25"/>
		<line opacity="0.5" fill="none" stroke="#FFFFFF" stroke-width="2" stroke-miterlimit="10" x1="662" y1="15" x2="662" y2="25"/>
		<line opacity="0.5" fill="none" stroke="#FFFFFF" stroke-width="2" stroke-miterlimit="10" x1="619" y1="15" x2="619" y2="25"/>
		<line opacity="0.5" fill="none" stroke="#FFFFFF" stroke-width="2" stroke-miterlimit="10" x1="634" y1="15" x2="634" y2="25"/>
		<line opacity="0.5" fill="none" stroke="#FFFFFF" stroke-width="2" stroke-miterlimit="10" x1="605" y1="15" x2="605" y2="25"/>
		<line opacity="0.5" fill="none" stroke="#FFFFFF" stroke-width="2" stroke-miterlimit="10" x1="590" y1="15" x2="590" y2="25"/>
		<line opacity="0.5" fill="none" stroke="#FFFFFF" stroke-width="2" stroke-miterlimit="10" x1="547" y1="15" x2="547" y2="25"/>
		<line opacity="0.5" fill="none" stroke="#FFFFFF" stroke-width="2" stroke-miterlimit="10" x1="562" y1="15" x2="562" y2="25"/>
		<line opacity="0.5" fill="none" stroke="#FFFFFF" stroke-width="2" stroke-miterlimit="10" x1="533" y1="15" x2="533" y2="25"/>
		<line opacity="0.5" fill="none" stroke="#FFFFFF" stroke-width="2" stroke-miterlimit="10" x1="518" y1="15" x2="518" y2="25"/>
		<line opacity="0.5" fill="none" stroke="#FFFFFF" stroke-width="2" stroke-miterlimit="10" x1="475" y1="15" x2="475" y2="25"/>
		<line opacity="0.5" fill="none" stroke="#FFFFFF" stroke-width="2" stroke-miterlimit="10" x1="490" y1="15" x2="490" y2="25"/>
		<line opacity="0.5" fill="none" stroke="#FFFFFF" stroke-width="2" stroke-miterlimit="10" x1="461" y1="15" x2="461" y2="25"/>
		<line opacity="0.5" fill="none" stroke="#FFFFFF" stroke-width="2" stroke-miterlimit="10" x1="446" y1="15" x2="446" y2="25"/>
		<line opacity="0.5" fill="none" stroke="#FFFFFF" stroke-width="2" stroke-miterlimit="10" x1="403" y1="15" x2="403" y2="25"/>
		<line opacity="0.5" fill="none" stroke="#FFFFFF" stroke-width="2" stroke-miterlimit="10" x1="418" y1="15" x2="418" y2="25"/>
		<line opacity="0.5" fill="none" stroke="#FFFFFF" stroke-width="2" stroke-miterlimit="10" x1="389" y1="15" x2="389" y2="25"/>
		<line opacity="0.5" fill="none" stroke="#FFFFFF" stroke-width="2" stroke-miterlimit="10" x1="374" y1="15" x2="374" y2="25"/>
		<line opacity="0.5" fill="none" stroke="#FFFFFF" stroke-width="2" stroke-miterlimit="10" x1="331" y1="15" x2="331" y2="25"/>
		<line opacity="0.5" fill="none" stroke="#FFFFFF" stroke-width="2" stroke-miterlimit="10" x1="346" y1="15" x2="346" y2="25"/>
		<line opacity="0.5" fill="none" stroke="#FFFFFF" stroke-width="2" stroke-miterlimit="10" x1="317" y1="15" x2="317" y2="25"/>
		<line opacity="0.5" fill="none" stroke="#FFFFFF" stroke-width="2" stroke-miterlimit="10" x1="302" y1="15" x2="302" y2="25"/>
		<line opacity="0.5" fill="none" stroke="#FFFFFF" stroke-width="2" stroke-miterlimit="10" x1="259" y1="15" x2="259" y2="25"/>
		<line opacity="0.5" fill="none" stroke="#FFFFFF" stroke-width="2" stroke-miterlimit="10" x1="274" y1="15" x2="274" y2="25"/>
		<line opacity="0.5" fill="none" stroke="#FFFFFF" stroke-width="2" stroke-miterlimit="10" x1="245" y1="15" x2="245" y2="25"/>
		<line opacity="0.5" fill="none" stroke="#FFFFFF" stroke-width="2" stroke-miterlimit="10" x1="230" y1="15" x2="230" y2="25"/>
		<line opacity="0.5" fill="none" stroke="#FFFFFF" stroke-width="2" stroke-miterlimit="10" x1="187" y1="15" x2="187" y2="25"/>
		<line opacity="0.5" fill="none" stroke="#FFFFFF" stroke-width="2" stroke-miterlimit="10" x1="202" y1="15" x2="202" y2="25"/>
		<line opacity="0.5" fill="none" stroke="#FFFFFF" stroke-width="2" stroke-miterlimit="10" x1="173" y1="15" x2="173" y2="25"/>
		<line opacity="0.5" fill="none" stroke="#FFFFFF" stroke-width="2" stroke-miterlimit="10" x1="158" y1="15" x2="158" y2="25"/>
		<line opacity="0.5" fill="none" stroke="#FFFFFF" stroke-width="2" stroke-miterlimit="10" x1="115" y1="15" x2="115" y2="25"/>
		<line opacity="0.5" fill="none" stroke="#FFFFFF" stroke-width="2" stroke-miterlimit="10" x1="130" y1="15" x2="130" y2="25"/>
		<line opacity="0.5" fill="none" stroke="#FFFFFF" stroke-width="2" stroke-miterlimit="10" x1="101" y1="15" x2="101" y2="25"/>
		<line opacity="0.5" fill="none" stroke="#FFFFFF" stroke-width="2" stroke-miterlimit="10" x1="86" y1="15" x2="86" y2="25"/>
		<line opacity="0.5" fill="none" stroke="#FFFFFF" stroke-width="2" stroke-miterlimit="10" x1="43" y1="15" x2="43" y2="25"/>
		<line opacity="0.5" fill="none" stroke="#FFFFFF" stroke-width="2" stroke-miterlimit="10" x1="58" y1="15" x2="58" y2="25"/>
		<line opacity="0.5" fill="none" stroke="#FFFFFF" stroke-width="2" stroke-miterlimit="10" x1="29" y1="15" x2="29" y2="25"/>
		<line opacity="0.5" fill="none" stroke="#FFFFFF" stroke-width="2" stroke-miterlimit="10" x1="14" y1="15" x2="14" y2="25"/>
		<line opacity="0.5" fill="none" stroke="#FFFFFF" stroke-width="2" stroke-miterlimit="10" x1="763" y1="587" x2="763" y2="597"/>
		<line opacity="0.5" fill="none" stroke="#FFFFFF" stroke-width="2" stroke-miterlimit="10" x1="778" y1="587" x2="778" y2="597"/>
		<line opacity="0.5" fill="none" stroke="#FFFFFF" stroke-width="2" stroke-miterlimit="10" x1="749" y1="587" x2="749" y2="597"/>
		<line opacity="0.5" fill="none" stroke="#FFFFFF" stroke-width="2" stroke-miterlimit="10" x1="734" y1="587" x2="734" y2="597"/>
		<line opacity="0.5" fill="none" stroke="#FFFFFF" stroke-width="2" stroke-miterlimit="10" x1="691" y1="587" x2="691" y2="597"/>
		<line opacity="0.5" fill="none" stroke="#FFFFFF" stroke-width="2" stroke-miterlimit="10" x1="706" y1="587" x2="706" y2="597"/>
		<line opacity="0.5" fill="none" stroke="#FFFFFF" stroke-width="2" stroke-miterlimit="10" x1="677" y1="587" x2="677" y2="597"/>
		<line opacity="0.5" fill="none" stroke="#FFFFFF" stroke-width="2" stroke-miterlimit="10" x1="662" y1="587" x2="662" y2="597"/>
		<line opacity="0.5" fill="none" stroke="#FFFFFF" stroke-width="2" stroke-miterlimit="10" x1="619" y1="587" x2="619" y2="597"/>
		<line opacity="0.5" fill="none" stroke="#FFFFFF" stroke-width="2" stroke-miterlimit="10" x1="634" y1="587" x2="634" y2="597"/>
		<line opacity="0.5" fill="none" stroke="#FFFFFF" stroke-width="2" stroke-miterlimit="10" x1="605" y1="587" x2="605" y2="597"/>
		<line opacity="0.5" fill="none" stroke="#FFFFFF" stroke-width="2" stroke-miterlimit="10" x1="590" y1="587" x2="590" y2="597"/>
		<line opacity="0.5" fill="none" stroke="#FFFFFF" stroke-width="2" stroke-miterlimit="10" x1="547" y1="587" x2="547" y2="597"/>
		<line opacity="0.5" fill="none" stroke="#FFFFFF" stroke-width="2" stroke-miterlimit="10" x1="562" y1="587" x2="562" y2="597"/>
		<line opacity="0.5" fill="none" stroke="#FFFFFF" stroke-width="2" stroke-miterlimit="10" x1="533" y1="587" x2="533" y2="597"/>
		<line opacity="0.5" fill="none" stroke="#FFFFFF" stroke-width="2" stroke-miterlimit="10" x1="518" y1="587" x2="518" y2="597"/>
		<line opacity="0.5" fill="none" stroke="#FFFFFF" stroke-width="2" stroke-miterlimit="10" x1="475" y1="587" x2="475" y2="597"/>
		<line opacity="0.5" fill="none" stroke="#FFFFFF" stroke-width="2" stroke-miterlimit="10" x1="490" y1="587" x2="490" y2="597"/>
		<line opacity="0.5" fill="none" stroke="#FFFFFF" stroke-width="2" stroke-miterlimit="10" x1="461" y1="587" x2="461" y2="597"/>
		<line opacity="0.5" fill="none" stroke="#FFFFFF" stroke-width="2" stroke-miterlimit="10" x1="446" y1="587" x2="446" y2="597"/>
		<line opacity="0.5" fill="none" stroke="#FFFFFF" stroke-width="2" stroke-miterlimit="10" x1="403" y1="587" x2="403" y2="597"/>
		<line opacity="0.5" fill="none" stroke="#FFFFFF" stroke-width="2" stroke-miterlimit="10" x1="418" y1="587" x2="418" y2="597"/>
		<line opacity="0.5" fill="none" stroke="#FFFFFF" stroke-width="2" stroke-miterlimit="10" x1="389" y1="587" x2="389" y2="597"/>
		<line opacity="0.5" fill="none" stroke="#FFFFFF" stroke-width="2" stroke-miterlimit="10" x1="374" y1="587" x2="374" y2="597"/>
		<line opacity="0.5" fill="none" stroke="#FFFFFF" stroke-width="2" stroke-miterlimit="10" x1="331" y1="587" x2="331" y2="597"/>
		<line opacity="0.5" fill="none" stroke="#FFFFFF" stroke-width="2" stroke-miterlimit="10" x1="346" y1="587" x2="346" y2="597"/>
		<line opacity="0.5" fill="none" stroke="#FFFFFF" stroke-width="2" stroke-miterlimit="10" x1="317" y1="587" x2="317" y2="597"/>
		<line opacity="0.5" fill="none" stroke="#FFFFFF" stroke-width="2" stroke-miterlimit="10" x1="302" y1="587" x2="302" y2="597"/>
		<line opacity="0.5" fill="none" stroke="#FFFFFF" stroke-width="2" stroke-miterlimit="10" x1="259" y1="587" x2="259" y2="597"/>
		<line opacity="0.5" fill="none" stroke="#FFFFFF" stroke-width="2" stroke-miterlimit="10" x1="274" y1="587" x2="274" y2="597"/>
		<line opacity="0.5" fill="none" stroke="#FFFFFF" stroke-width="2" stroke-miterlimit="10" x1="245" y1="587" x2="245" y2="597"/>
		<line opacity="0.5" fill="none" stroke="#FFFFFF" stroke-width="2" stroke-miterlimit="10" x1="230" y1="587" x2="230" y2="597"/>
		<line opacity="0.5" fill="none" stroke="#FFFFFF" stroke-width="2" stroke-miterlimit="10" x1="187" y1="587" x2="187" y2="597"/>
		<line opacity="0.5" fill="none" stroke="#FFFFFF" stroke-width="2" stroke-miterlimit="10" x1="202" y1="587" x2="202" y2="597"/>
		<line opacity="0.5" fill="none" stroke="#FFFFFF" stroke-width="2" stroke-miterlimit="10" x1="173" y1="587" x2="173" y2="597"/>
		<line opacity="0.5" fill="none" stroke="#FFFFFF" stroke-width="2" stroke-miterlimit="10" x1="158" y1="587" x2="158" y2="597"/>
		<line opacity="0.5" fill="none" stroke="#FFFFFF" stroke-width="2" stroke-miterlimit="10" x1="115" y1="587" x2="115" y2="597"/>
		<line opacity="0.5" fill="none" stroke="#FFFFFF" stroke-width="2" stroke-miterlimit="10" x1="130" y1="587" x2="130" y2="597"/>
		<line opacity="0.5" fill="none" stroke="#FFFFFF" stroke-width="2" stroke-miterlimit="10" x1="101" y1="587" x2="101" y2="597"/>
		<line opacity="0.5" fill="none" stroke="#FFFFFF" stroke-width="2" stroke-miterlimit="10" x1="86" y1="587" x2="86" y2="597"/>
		<line opacity="0.5" fill="none" stroke="#FFFFFF" stroke-width="2" stroke-miterlimit="10" x1="43" y1="587" x2="43" y2="597"/>
		<line opacity="0.5" fill="none" stroke="#FFFFFF" stroke-width="2" stroke-miterlimit="10" x1="58" y1="587" x2="58" y2="597"/>
		<line opacity="0.5" fill="none" stroke="#FFFFFF" stroke-width="2" stroke-miterlimit="10" x1="29" y1="587" x2="29" y2="597"/>
		<line opacity="0.5" fill="none" stroke="#FFFFFF" stroke-width="2" stroke-miterlimit="10" x1="14" y1="587" x2="14" y2="597"/>
		<line opacity="0.5" fill="none" stroke="#FFFFFF" stroke-width="2" stroke-miterlimit="10" x1="763" y1="209" x2="763" y2="219"/>
		<line opacity="0.5" fill="none" stroke="#FFFFFF" stroke-width="2" stroke-miterlimit="10" x1="778" y1="209" x2="778" y2="219"/>
		<line opacity="0.5" fill="none" stroke="#FFFFFF" stroke-width="2" stroke-miterlimit="10" x1="749" y1="209" x2="749" y2="219"/>
		<line opacity="0.5" fill="none" stroke="#FFFFFF" stroke-width="2" stroke-miterlimit="10" x1="734" y1="209" x2="734" y2="219"/>
		<line opacity="0.5" fill="none" stroke="#FFFFFF" stroke-width="2" stroke-miterlimit="10" x1="691" y1="209" x2="691" y2="219"/>
		<line opacity="0.5" fill="none" stroke="#FFFFFF" stroke-width="2" stroke-miterlimit="10" x1="706" y1="209" x2="706" y2="219"/>
		<line opacity="0.5" fill="none" stroke="#FFFFFF" stroke-width="2" stroke-miterlimit="10" x1="677" y1="209" x2="677" y2="219"/>
		<line opacity="0.5" fill="none" stroke="#FFFFFF" stroke-width="2" stroke-miterlimit="10" x1="662" y1="209" x2="662" y2="219"/>
		<line opacity="0.5" fill="none" stroke="#FFFFFF" stroke-width="2" stroke-miterlimit="10" x1="619" y1="209" x2="619" y2="219"/>
		<line opacity="0.5" fill="none" stroke="#FFFFFF" stroke-width="2" stroke-miterlimit="10" x1="634" y1="209" x2="634" y2="219"/>
		<line opacity="0.5" fill="none" stroke="#FFFFFF" stroke-width="2" stroke-miterlimit="10" x1="605" y1="209" x2="605" y2="219"/>
		<line opacity="0.5" fill="none" stroke="#FFFFFF" stroke-width="2" stroke-miterlimit="10" x1="590" y1="209" x2="590" y2="219"/>
		<line opacity="0.5" fill="none" stroke="#FFFFFF" stroke-width="2" stroke-miterlimit="10" x1="547" y1="209" x2="547" y2="219"/>
		<line opacity="0.5" fill="none" stroke="#FFFFFF" stroke-width="2" stroke-miterlimit="10" x1="562" y1="209" x2="562" y2="219"/>
		<line opacity="0.5" fill="none" stroke="#FFFFFF" stroke-width="2" stroke-miterlimit="10" x1="533" y1="209" x2="533" y2="219"/>
		<line opacity="0.5" fill="none" stroke="#FFFFFF" stroke-width="2" stroke-miterlimit="10" x1="518" y1="209" x2="518" y2="219"/>
		<line opacity="0.5" fill="none" stroke="#FFFFFF" stroke-width="2" stroke-miterlimit="10" x1="475" y1="209" x2="475" y2="219"/>
		<line opacity="0.5" fill="none" stroke="#FFFFFF" stroke-width="2" stroke-miterlimit="10" x1="490" y1="209" x2="490" y2="219"/>
		<line opacity="0.5" fill="none" stroke="#FFFFFF" stroke-width="2" stroke-miterlimit="10" x1="461" y1="209" x2="461" y2="219"/>
		<line opacity="0.5" fill="none" stroke="#FFFFFF" stroke-width="2" stroke-miterlimit="10" x1="446" y1="209" x2="446" y2="219"/>
		<line opacity="0.5" fill="none" stroke="#FFFFFF" stroke-width="2" stroke-miterlimit="10" x1="403" y1="209" x2="403" y2="219"/>
		<line opacity="0.5" fill="none" stroke="#FFFFFF" stroke-width="2" stroke-miterlimit="10" x1="418" y1="209" x2="418" y2="219"/>
		<line opacity="0.5" fill="none" stroke="#FFFFFF" stroke-width="2" stroke-miterlimit="10" x1="389" y1="209" x2="389" y2="219"/>
		<line opacity="0.5" fill="none" stroke="#FFFFFF" stroke-width="2" stroke-miterlimit="10" x1="374" y1="209" x2="374" y2="219"/>
		<line opacity="0.5" fill="none" stroke="#FFFFFF" stroke-width="2" stroke-miterlimit="10" x1="331" y1="209" x2="331" y2="219"/>
		<line opacity="0.5" fill="none" stroke="#FFFFFF" stroke-width="2" stroke-miterlimit="10" x1="346" y1="209" x2="346" y2="219"/>
		<line opacity="0.5" fill="none" stroke="#FFFFFF" stroke-width="2" stroke-miterlimit="10" x1="317" y1="209" x2="317" y2="219"/>
		<line opacity="0.5" fill="none" stroke="#FFFFFF" stroke-width="2" stroke-miterlimit="10" x1="302" y1="209" x2="302" y2="219"/>
		<line opacity="0.5" fill="none" stroke="#FFFFFF" stroke-width="2" stroke-miterlimit="10" x1="259" y1="209" x2="259" y2="219"/>
		<line opacity="0.5" fill="none" stroke="#FFFFFF" stroke-width="2" stroke-miterlimit="10" x1="274" y1="209" x2="274" y2="219"/>
		<line opacity="0.5" fill="none" stroke="#FFFFFF" stroke-width="2" stroke-miterlimit="10" x1="245" y1="209" x2="245" y2="219"/>
		<line opacity="0.5" fill="none" stroke="#FFFFFF" stroke-width="2" stroke-miterlimit="10" x1="230" y1="209" x2="230" y2="219"/>
		<line opacity="0.5" fill="none" stroke="#FFFFFF" stroke-width="2" stroke-miterlimit="10" x1="187" y1="209" x2="187" y2="219"/>
		<line opacity="0.5" fill="none" stroke="#FFFFFF" stroke-width="2" stroke-miterlimit="10" x1="202" y1="209" x2="202" y2="219"/>
		<line opacity="0.5" fill="none" stroke="#FFFFFF" stroke-width="2" stroke-miterlimit="10" x1="173" y1="209" x2="173" y2="219"/>
		<line opacity="0.5" fill="none" stroke="#FFFFFF" stroke-width="2" stroke-miterlimit="10" x1="158" y1="209" x2="158" y2="219"/>
		<line opacity="0.5" fill="none" stroke="#FFFFFF" stroke-width="2" stroke-miterlimit="10" x1="115" y1="209" x2="115" y2="219"/>
		<line opacity="0.5" fill="none" stroke="#FFFFFF" stroke-width="2" stroke-miterlimit="10" x1="130" y1="209" x2="130" y2="219"/>
		<line opacity="0.5" fill="none" stroke="#FFFFFF" stroke-width="2" stroke-miterlimit="10" x1="101" y1="209" x2="101" y2="219"/>
		<line opacity="0.5" fill="none" stroke="#FFFFFF" stroke-width="2" stroke-miterlimit="10" x1="86" y1="209" x2="86" y2="219"/>
		<line opacity="0.5" fill="none" stroke="#FFFFFF" stroke-width="2" stroke-miterlimit="10" x1="43" y1="209" x2="43" y2="219"/>
		<line opacity="0.5" fill="none" stroke="#FFFFFF" stroke-width="2" stroke-miterlimit="10" x1="58" y1="209" x2="58" y2="219"/>
		<line opacity="0.5" fill="none" stroke="#FFFFFF" stroke-width="2" stroke-miterlimit="10" x1="29" y1="209" x2="29" y2="219"/>
		<line opacity="0.5" fill="none" stroke="#FFFFFF" stroke-width="2" stroke-miterlimit="10" x1="14" y1="209" x2="14" y2="219"/>
		<line opacity="0.5" fill="none" stroke="#FFFFFF" stroke-width="2" stroke-miterlimit="10" x1="763" y1="393" x2="763" y2="403"/>
		<line opacity="0.5" fill="none" stroke="#FFFFFF" stroke-width="2" stroke-miterlimit="10" x1="778" y1="393" x2="778" y2="403"/>
		<line opacity="0.5" fill="none" stroke="#FFFFFF" stroke-width="2" stroke-miterlimit="10" x1="749" y1="393" x2="749" y2="403"/>
		<line opacity="0.5" fill="none" stroke="#FFFFFF" stroke-width="2" stroke-miterlimit="10" x1="734" y1="393" x2="734" y2="403"/>
		<line opacity="0.5" fill="none" stroke="#FFFFFF" stroke-width="2" stroke-miterlimit="10" x1="691" y1="393" x2="691" y2="403"/>
		<line opacity="0.5" fill="none" stroke="#FFFFFF" stroke-width="2" stroke-miterlimit="10" x1="706" y1="393" x2="706" y2="403"/>
		<line opacity="0.5" fill="none" stroke="#FFFFFF" stroke-width="2" stroke-miterlimit="10" x1="677" y1="393" x2="677" y2="403"/>
		<line opacity="0.5" fill="none" stroke="#FFFFFF" stroke-width="2" stroke-miterlimit="10" x1="662" y1="393" x2="662" y2="403"/>
		<line opacity="0.5" fill="none" stroke="#FFFFFF" stroke-width="2" stroke-miterlimit="10" x1="619" y1="393" x2="619" y2="403"/>
		<line opacity="0.5" fill="none" stroke="#FFFFFF" stroke-width="2" stroke-miterlimit="10" x1="634" y1="393" x2="634" y2="403"/>
		<line opacity="0.5" fill="none" stroke="#FFFFFF" stroke-width="2" stroke-miterlimit="10" x1="605" y1="393" x2="605" y2="403"/>
		<line opacity="0.5" fill="none" stroke="#FFFFFF" stroke-width="2" stroke-miterlimit="10" x1="590" y1="393" x2="590" y2="403"/>
		<line opacity="0.5" fill="none" stroke="#FFFFFF" stroke-width="2" stroke-miterlimit="10" x1="547" y1="393" x2="547" y2="403"/>
		<line opacity="0.5" fill="none" stroke="#FFFFFF" stroke-width="2" stroke-miterlimit="10" x1="562" y1="393" x2="562" y2="403"/>
		<line opacity="0.5" fill="none" stroke="#FFFFFF" stroke-width="2" stroke-miterlimit="10" x1="533" y1="393" x2="533" y2="403"/>
		<line opacity="0.5" fill="none" stroke="#FFFFFF" stroke-width="2" stroke-miterlimit="10" x1="518" y1="393" x2="518" y2="403"/>
		<line opacity="0.5" fill="none" stroke="#FFFFFF" stroke-width="2" stroke-miterlimit="10" x1="475" y1="393" x2="475" y2="403"/>
		<line opacity="0.5" fill="none" stroke="#FFFFFF" stroke-width="2" stroke-miterlimit="10" x1="490" y1="393" x2="490" y2="403"/>
		<line opacity="0.5" fill="none" stroke="#FFFFFF" stroke-width="2" stroke-miterlimit="10" x1="461" y1="393" x2="461" y2="403"/>
		<line opacity="0.5" fill="none" stroke="#FFFFFF" stroke-width="2" stroke-miterlimit="10" x1="446" y1="393" x2="446" y2="403"/>
		<line opacity="0.5" fill="none" stroke="#FFFFFF" stroke-width="2" stroke-miterlimit="10" x1="403" y1="393" x2="403" y2="403"/>
		<line opacity="0.5" fill="none" stroke="#FFFFFF" stroke-width="2" stroke-miterlimit="10" x1="418" y1="393" x2="418" y2="403"/>
		<line opacity="0.5" fill="none" stroke="#FFFFFF" stroke-width="2" stroke-miterlimit="10" x1="389" y1="393" x2="389" y2="403"/>
		<line opacity="0.5" fill="none" stroke="#FFFFFF" stroke-width="2" stroke-miterlimit="10" x1="374" y1="393" x2="374" y2="403"/>
		<line opacity="0.5" fill="none" stroke="#FFFFFF" stroke-width="2" stroke-miterlimit="10" x1="331" y1="393" x2="331" y2="403"/>
		<line opacity="0.5" fill="none" stroke="#FFFFFF" stroke-width="2" stroke-miterlimit="10" x1="346" y1="393" x2="346" y2="403"/>
		<line opacity="0.5" fill="none" stroke="#FFFFFF" stroke-width="2" stroke-miterlimit="10" x1="317" y1="393" x2="317" y2="403"/>
		<line opacity="0.5" fill="none" stroke="#FFFFFF" stroke-width="2" stroke-miterlimit="10" x1="302" y1="393" x2="302" y2="403"/>
		<line opacity="0.5" fill="none" stroke="#FFFFFF" stroke-width="2" stroke-miterlimit="10" x1="259" y1="393" x2="259" y2="403"/>
		<line opacity="0.5" fill="none" stroke="#FFFFFF" stroke-width="2" stroke-miterlimit="10" x1="274" y1="393" x2="274" y2="403"/>
		<line opacity="0.5" fill="none" stroke="#FFFFFF" stroke-width="2" stroke-miterlimit="10" x1="245" y1="393" x2="245" y2="403"/>
		<line opacity="0.5" fill="none" stroke="#FFFFFF" stroke-width="2" stroke-miterlimit="10" x1="230" y1="393" x2="230" y2="403"/>
		<line opacity="0.5" fill="none" stroke="#FFFFFF" stroke-width="2" stroke-miterlimit="10" x1="187" y1="393" x2="187" y2="403"/>
		<line opacity="0.5" fill="none" stroke="#FFFFFF" stroke-width="2" stroke-miterlimit="10" x1="202" y1="393" x2="202" y2="403"/>
		<line opacity="0.5" fill="none" stroke="#FFFFFF" stroke-width="2" stroke-miterlimit="10" x1="173" y1="393" x2="173" y2="403"/>
		<line opacity="0.5" fill="none" stroke="#FFFFFF" stroke-width="2" stroke-miterlimit="10" x1="158" y1="393" x2="158" y2="403"/>
		<line opacity="0.5" fill="none" stroke="#FFFFFF" stroke-width="2" stroke-miterlimit="10" x1="115" y1="393" x2="115" y2="403"/>
		<line opacity="0.5" fill="none" stroke="#FFFFFF" stroke-width="2" stroke-miterlimit="10" x1="130" y1="393" x2="130" y2="403"/>
		<line opacity="0.5" fill="none" stroke="#FFFFFF" stroke-width="2" stroke-miterlimit="10" x1="101" y1="393" x2="101" y2="403"/>
		<line opacity="0.5" fill="none" stroke="#FFFFFF" stroke-width="2" stroke-miterlimit="10" x1="86" y1="393" x2="86" y2="403"/>
		<line opacity="0.5" fill="none" stroke="#FFFFFF" stroke-width="2" stroke-miterlimit="10" x1="43" y1="393" x2="43" y2="403"/>
		<line opacity="0.5" fill="none" stroke="#FFFFFF" stroke-width="2" stroke-miterlimit="10" x1="58" y1="393" x2="58" y2="403"/>
		<line opacity="0.5" fill="none" stroke="#FFFFFF" stroke-width="2" stroke-miterlimit="10" x1="29" y1="393" x2="29" y2="403"/>
		<line opacity="0.5" fill="none" stroke="#FFFFFF" stroke-width="2" stroke-miterlimit="10" x1="14" y1="393" x2="14" y2="403"/>
	</g>
	<g>
		
			<text transform="matrix(-1 0 0 -1 670.6719 48.3076)" opacity="0.5" fill="#FFFFFF" font-family="'StencilStd'" font-size="36" letter-spacing="3">10</text>
		
			<text transform="matrix(-1 0 0 -1 530.2705 48.3076)" opacity="0.5" fill="#FFFFFF" font-family="'StencilStd'" font-size="36" letter-spacing="7">20</text>
		
			<text transform="matrix(-1 0 0 -1 386.2705 48.3076)" opacity="0.5" fill="#FFFFFF" font-family="'StencilStd'" font-size="36" letter-spacing="7">30</text>
		
			<text transform="matrix(-1 0 0 -1 242.2705 48.3076)" opacity="0.5" fill="#FFFFFF" font-family="'StencilStd'" font-size="36" letter-spacing="7">40</text>
		
			<text transform="matrix(-1 0 0 -1 98.2705 48.3076)" opacity="0.5" fill="#FFFFFF" font-family="'StencilStd'" font-size="36" letter-spacing="7">50</text>
		
			<text transform="matrix(1 0 0 1 625.1113 556.4385)" opacity="0.5" fill="#FFFFFF" font-family="'StencilStd'" font-size="36" letter-spacing="3">10</text>
		
			<text transform="matrix(1 0 0 1 477.5107 556.4385)" opacity="0.5" fill="#FFFFFF" font-family="'StencilStd'" font-size="36" letter-spacing="7">20</text>
		
			<text transform="matrix(1 0 0 1 333.5107 556.4385)" opacity="0.5" fill="#FFFFFF" font-family="'StencilStd'" font-size="36" letter-spacing="7">30</text>
		
			<text transform="matrix(1 0 0 1 189.5107 556.4385)" opacity="0.5" fill="#FFFFFF" font-family="'StencilStd'" font-size="36" letter-spacing="7">40</text>
		
			<text transform="matrix(1 0 0 1 45.5107 556.4385)" opacity="0.5" fill="#FFFFFF" font-family="'StencilStd'" font-size="36" letter-spacing="7">50</text>
	</g>
	<circle opacity="0.5" fill="#FFFFFF" cx="528.798" cy="534.197" r="22.677"/>
	<circle opacity="0.5" fill="#FFFFFF" cx="591.798" cy="534.197" r="22.677"/>
	<circle opacity="0.5" fill="#FFFFFF" cx="654.798" cy="534.197" r="22.677"/>
	<circle opacity="0.5" fill="#FFFFFF" cx="717.798" cy="534.197" r="22.677"/>
	<text transform="matrix(1 0 0 1 595.4238 496.6494)" opacity="0.7" fill="#FFFFFF" font-family="'StencilStd'" font-size="18">DOWN</text>
	<text transform="matrix(1 0 0 1 523.2627 538.9844)" fill="#010101" font-family="'StencilStd'" font-size="18">1</text>
	<text transform="matrix(1 0 0 1 586.2432 538.9844)" fill="#010101" font-family="'StencilStd'" font-size="18">2</text>
	<text transform="matrix(1 0 0 1 649.2246 538.9844)" fill="#010101" font-family="'StencilStd'" font-size="18">3</text>
	<text transform="matrix(1 0 0 1 712.207 538.9844)" fill="#010101" font-family="'StencilStd'" font-size="18">4</text>
	
		<use xlink:href="#playcard"  width="253" height="181" x="-127" y="-91" transform="matrix(1 0 0 -1 624 147)" overflow="visible" opacity="0.5"/>
	<text transform="matrix(1 0 0 1 544.0391 144.9209)"><tspan x="0" y="0" fill="#010101" font-family="'Seravek-Light'" font-size="18">Two Minute Warning</tspan><tspan x="26.152" y="18" fill="#010101" font-family="'Seravek-Light'" font-size="10">(Special cards face down)</tspan></text>
	
		<use xlink:href="#playcard"  width="253" height="181" x="-127" y="-91" transform="matrix(1 0 0 -1 624 358)" overflow="visible" opacity="0.5"/>
	<text transform="matrix(1 0 0 1 579.8438 355.9785)"><tspan x="0" y="0" fill="#010101" font-family="'Seravek-Light'" font-size="18">Discard Pile</tspan><tspan x="-14.747" y="18" fill="#010101" font-family="'Seravek-Light'" font-size="10">(Used Special cards face up)</tspan></text>
	<rect x="62.5" y="66.5" fill="#FFFFFF" stroke="#000000" stroke-miterlimit="10" width="400" height="480"/>
	<rect x="62.5" y="66.5" fill="#0C0D0C" width="400" height="40"/>
	<rect x="62.5" y="506.5" fill="#0C0D0C" width="400" height="40"/>
	<g id="Layer_12">
		<g>
			<path fill="#FFFFFF" d="M262.001,203.016c88.361,0,160,42.356,160,94.608s-71.639,94.61-160,94.61s-160-42.358-160-94.61
				S173.64,203.016,262.001,203.016z"/>
			<path fill="#0C0D0C" d="M261.651,207.883c85.679,0,155.133,40.491,155.133,90.438c0,49.945-69.454,90.437-155.133,90.437
				c-85.672,0-155.133-40.491-155.133-90.437C106.519,248.374,175.979,207.883,261.651,207.883z"/>
			<path fill="#C7A564" d="M262.351,215.883c74.729,0,135.301,37.375,135.301,83.482c0,46.102-60.571,83.476-135.301,83.476
				c-74.73,0-135.303-37.374-135.303-83.476C127.048,253.258,187.62,215.883,262.351,215.883z"/>
			<path fill="#C9203D" d="M262.7,220.058c68.768,0,124.518,34.887,124.518,77.916S331.468,375.89,262.7,375.89
				c-68.777,0-124.527-34.887-124.527-77.916S193.923,220.058,262.7,220.058z"/>
			<path fill="#0C0D0C" d="M359.985,287.803h-0.343v-2.837h-2.495h-46.9c-1.058-5.557-4.261-10.711-8.82-14.739
				c-4.488-5.163-11.018-9.048-18.442-10.523l-3.091-0.633c-7.126-1.5-12.751-2.688-35.408-2.571c0,0-4.359-0.148-8.592-0.71
				c-1.064-0.268-2.002-0.594-2.814-0.94c0.312-1.888,3.764-4.482,7.656-4.987c0.406-0.073,24.916-4.587,50.157,11.757l0.621,0.403
				h16.58v-25.383h-2.833v-2.835h-22.767c0,0-2.697,2.062-3.83,2.929c-6.554-1.642-38.647-8.663-66.366,3.467
				c-11.646,4.814-18.875,13.902-18.362,23.123c0.266,4.654,2.487,8.708,6.333,11.856c2.84,3.531,7.283,6.293,13.09,7.962
				c8.202,2.365,15.15,3.336,21.882,3.726v0.812v10.758h2.839v2.836h8.656c3.587,0,4.502,1.985,4.723,2.725
				c-11.035-0.725-27.842-3.864-40.197-15.309l-0.463-0.502h-0.094c-0.684-0.649-1.348-1.323-2.003-2.031l-0.747-0.804h-12.441
				v36.133h2.834v2.829h10.146c1.492,0.107,6.211-0.423,9.461-9.926c5.281,1.834,18.293,5.753,34.314,6.19v22.469
				c-0.559,7.55-17.184,9.909-22.971,10.142l-2.396,0.092v11.173h2.834v2.835h72.998v-10.691l-1.869-0.492
				c-0.33-0.089-0.646-0.178-0.972-0.266v-2.448l-2.281-0.188c-4.094-0.371-7.253-1.081-9.71-1.948c-4.584-2.582-5.371-4.666-5.47-5
				v-11.989h21.398c2.252,0.344,4.188,1.338,5.835,2.625c3.076,3.79,4.478,8.125,4.508,8.198l0.541,1.757l1.835,0.014h0.062
				c0.251,0.638,0.393,1.046,0.395,1.063l0.543,1.765h1.845h9.655v-43.47h-2.499h-0.342v-2.838h-2.496h-8.943l-0.408,1.987
				c-3.001,14.446-19.706,14.236-34.561,12.067c2.909-0.794,5.844-1.747,8.754-2.909c7.958-3.162,13.92-7.455,17.644-12.488h32.055
				c2.234,0.068,4.14,0.627,5.734,1.673c3.365,4.931,3.028,12.186,3.023,12.274l-0.144,2.625h2.632h0.358
				c-0.004,0.125-0.009,0.194-0.009,0.21l-0.142,2.633l2.63,0.001h10.148v-33.652h-2.498V287.803z"/>
			<path fill="#FFFFFF" d="M308.847,296.701h26.574c15.172,0.483,14.072,19.417,14.072,19.417h7.65V287.46h-45.852
				C311.292,287.46,311.177,293.874,308.847,296.701"/>
			<path fill="#FFFFFF" d="M254.767,321.177v22.012c-0.787,11.537-25.373,12.488-25.373,12.488v6.279h68.004v-6.279
				c-20.205-1.746-20.293-12.039-20.293-12.039v-14.699h24.154c11.043,1.577,15.29,15.421,15.29,15.421h7.161v-38.483h-6.912
				c-4.812,23.18-40.341,12.754-42.968,13.33C273.83,319.206,265.08,321.391,254.767,321.177"/>
			<path fill="#FFFFFF" d="M275.985,283.319c9.226,2.703,10.09,9.749,4.686,16.344c-6.92,6.525-17.482,6.791-17.482,6.791
				s-35.566,3.844-56.324-18.603h-8.855v31.133h7.76c0,0,4.74,0.727,7.777-10.685c0,0,36.514,14.868,71.252,1.074
				c33.645-13.366,20.843-42.633-2.312-47.224c-8.904-1.762-12.438-3.284-37.991-3.153c0,0-4.605-0.146-9.103-0.756
				c-14.081-3.517-6.068-12.624,2.188-13.688c0,0,25.373-5.001,51.836,12.14h13.353v-20.396h-19.432l-4.125,3.154
				c0,0-36.007-10.054-65.913,3.035c-20.094,8.309-24.031,29.096-2.087,35.423c19.337,5.569,31.654,3.238,51.244,3.985
				C267.931,282.102,272.692,282.32,275.985,283.319"/>
			<path fill="#FFFFFF" d="M246.964,295.944h-9.229v-8.266c7.156,0,21.744,0.06,32.062,0c10.383,0,11.77,6,7.395,10.062
				c-4.125,3.829-12.77,6.552-22.992,4.689C254.2,302.431,253.358,295.944,246.964,295.944"/>
		</g>
	</g>
	<rect x="52.5" y="56.5" opacity="0.7" fill="#FFFFFF" stroke="#010101" stroke-miterlimit="10" width="420" height="500"/>
	
		<use xlink:href="#yards-grid_3_"  width="401.201" height="481" x="-200.601" y="-240.5" transform="matrix(1 0 0 -1 262.4004 306.5)" overflow="visible"/>
	<g id="Layer_14">
	</g>
	<g id="yards-grid">
		<g id="yards-grid_1_">
		</g>
	</g>
</g>
<g id="Layer_15">
</g>
<g id="Layer_6">
</g>
</svg>
