<?xml version="1.0" encoding="utf-8"?>
<!-- Generator: Adobe Illustrator 16.0.4, SVG Export Plug-In . SVG Version: 6.00 Build 0)  -->
<!DOCTYPE svg PUBLIC "-//W3C//DTD SVG 1.1//EN" "http://www.w3.org/Graphics/SVG/1.1/DTD/svg11.dtd">
<svg version="1.1" xmlns="http://www.w3.org/2000/svg" xmlns:xlink="http://www.w3.org/1999/xlink" x="0px" y="0px" width="792px"
	 height="612px" viewBox="0 0 792 612" enable-background="new 0 0 792 612" xml:space="preserve">
<symbol  id="field_2_" viewBox="-306 -396 612 792">
	<polygon fill="#5C9741" points="306,396 306,-396 -306,-396 -306,396 	"/>
	<g>
		
			<line opacity="0.5" fill="none" stroke="#FFFFFF" stroke-width="2" stroke-miterlimit="10" x1="-306" y1="324" x2="306" y2="324"/>
		
			<line opacity="0.5" fill="none" stroke="#FFFFFF" stroke-width="2" stroke-miterlimit="10" x1="-306" y1="252" x2="306" y2="252"/>
		
			<line opacity="0.5" fill="none" stroke="#FFFFFF" stroke-width="2" stroke-miterlimit="10" x1="-306" y1="180" x2="306" y2="180"/>
		
			<line opacity="0.5" fill="none" stroke="#FFFFFF" stroke-width="2" stroke-miterlimit="10" x1="-306" y1="108" x2="306" y2="108"/>
		<line opacity="0.5" fill="none" stroke="#FFFFFF" stroke-width="2" stroke-miterlimit="10" x1="-306" y1="36" x2="306" y2="36"/>
		
			<line opacity="0.5" fill="none" stroke="#FFFFFF" stroke-width="2" stroke-miterlimit="10" x1="-306" y1="-36" x2="306" y2="-36"/>
		
			<line opacity="0.5" fill="none" stroke="#FFFFFF" stroke-width="2" stroke-miterlimit="10" x1="-306" y1="-108" x2="306" y2="-108"/>
		
			<line opacity="0.5" fill="none" stroke="#FFFFFF" stroke-width="2" stroke-miterlimit="10" x1="-306" y1="-180" x2="306" y2="-180"/>
		
			<line opacity="0.5" fill="none" stroke="#FFFFFF" stroke-width="2" stroke-miterlimit="10" x1="-306" y1="-324" x2="306" y2="-324"/>
		
			<line opacity="0.5" fill="none" stroke="#FFFFFF" stroke-width="2" stroke-miterlimit="10" x1="-306" y1="-252" x2="306" y2="-252"/>
	</g>
	<g>
		
			<line opacity="0.5" fill="none" stroke="#FFFFFF" stroke-width="2" stroke-miterlimit="10" x1="-291" y1="367" x2="-281" y2="367"/>
		
			<line opacity="0.5" fill="none" stroke="#FFFFFF" stroke-width="2" stroke-miterlimit="10" x1="-291" y1="382" x2="-281" y2="382"/>
		
			<line opacity="0.5" fill="none" stroke="#FFFFFF" stroke-width="2" stroke-miterlimit="10" x1="-291" y1="353" x2="-281" y2="353"/>
		
			<line opacity="0.5" fill="none" stroke="#FFFFFF" stroke-width="2" stroke-miterlimit="10" x1="-291" y1="338" x2="-281" y2="338"/>
		
			<line opacity="0.5" fill="none" stroke="#FFFFFF" stroke-width="2" stroke-miterlimit="10" x1="-291" y1="295" x2="-281" y2="295"/>
		
			<line opacity="0.5" fill="none" stroke="#FFFFFF" stroke-width="2" stroke-miterlimit="10" x1="-291" y1="310" x2="-281" y2="310"/>
		
			<line opacity="0.5" fill="none" stroke="#FFFFFF" stroke-width="2" stroke-miterlimit="10" x1="-291" y1="281" x2="-281" y2="281"/>
		
			<line opacity="0.5" fill="none" stroke="#FFFFFF" stroke-width="2" stroke-miterlimit="10" x1="-291" y1="266" x2="-281" y2="266"/>
		
			<line opacity="0.5" fill="none" stroke="#FFFFFF" stroke-width="2" stroke-miterlimit="10" x1="-291" y1="223" x2="-281" y2="223"/>
		
			<line opacity="0.5" fill="none" stroke="#FFFFFF" stroke-width="2" stroke-miterlimit="10" x1="-291" y1="238" x2="-281" y2="238"/>
		
			<line opacity="0.5" fill="none" stroke="#FFFFFF" stroke-width="2" stroke-miterlimit="10" x1="-291" y1="209" x2="-281" y2="209"/>
		
			<line opacity="0.5" fill="none" stroke="#FFFFFF" stroke-width="2" stroke-miterlimit="10" x1="-291" y1="194" x2="-281" y2="194"/>
		
			<line opacity="0.5" fill="none" stroke="#FFFFFF" stroke-width="2" stroke-miterlimit="10" x1="-291" y1="151" x2="-281" y2="151"/>
		
			<line opacity="0.5" fill="none" stroke="#FFFFFF" stroke-width="2" stroke-miterlimit="10" x1="-291" y1="166" x2="-281" y2="166"/>
		
			<line opacity="0.5" fill="none" stroke="#FFFFFF" stroke-width="2" stroke-miterlimit="10" x1="-291" y1="137" x2="-281" y2="137"/>
		
			<line opacity="0.5" fill="none" stroke="#FFFFFF" stroke-width="2" stroke-miterlimit="10" x1="-291" y1="122" x2="-281" y2="122"/>
		<line opacity="0.5" fill="none" stroke="#FFFFFF" stroke-width="2" stroke-miterlimit="10" x1="-291" y1="79" x2="-281" y2="79"/>
		<line opacity="0.5" fill="none" stroke="#FFFFFF" stroke-width="2" stroke-miterlimit="10" x1="-291" y1="94" x2="-281" y2="94"/>
		<line opacity="0.5" fill="none" stroke="#FFFFFF" stroke-width="2" stroke-miterlimit="10" x1="-291" y1="65" x2="-281" y2="65"/>
		<line opacity="0.5" fill="none" stroke="#FFFFFF" stroke-width="2" stroke-miterlimit="10" x1="-291" y1="50" x2="-281" y2="50"/>
		<line opacity="0.5" fill="none" stroke="#FFFFFF" stroke-width="2" stroke-miterlimit="10" x1="-291" y1="7" x2="-281" y2="7"/>
		<line opacity="0.5" fill="none" stroke="#FFFFFF" stroke-width="2" stroke-miterlimit="10" x1="-291" y1="22" x2="-281" y2="22"/>
		<line opacity="0.5" fill="none" stroke="#FFFFFF" stroke-width="2" stroke-miterlimit="10" x1="-291" y1="-7" x2="-281" y2="-7"/>
		
			<line opacity="0.5" fill="none" stroke="#FFFFFF" stroke-width="2" stroke-miterlimit="10" x1="-291" y1="-22" x2="-281" y2="-22"/>
		
			<line opacity="0.5" fill="none" stroke="#FFFFFF" stroke-width="2" stroke-miterlimit="10" x1="-291" y1="-65" x2="-281" y2="-65"/>
		
			<line opacity="0.5" fill="none" stroke="#FFFFFF" stroke-width="2" stroke-miterlimit="10" x1="-291" y1="-50" x2="-281" y2="-50"/>
		
			<line opacity="0.5" fill="none" stroke="#FFFFFF" stroke-width="2" stroke-miterlimit="10" x1="-291" y1="-79" x2="-281" y2="-79"/>
		
			<line opacity="0.5" fill="none" stroke="#FFFFFF" stroke-width="2" stroke-miterlimit="10" x1="-291" y1="-94" x2="-281" y2="-94"/>
		
			<line opacity="0.5" fill="none" stroke="#FFFFFF" stroke-width="2" stroke-miterlimit="10" x1="-291" y1="-137" x2="-281" y2="-137"/>
		
			<line opacity="0.5" fill="none" stroke="#FFFFFF" stroke-width="2" stroke-miterlimit="10" x1="-291" y1="-122" x2="-281" y2="-122"/>
		
			<line opacity="0.5" fill="none" stroke="#FFFFFF" stroke-width="2" stroke-miterlimit="10" x1="-291" y1="-151" x2="-281" y2="-151"/>
		
			<line opacity="0.5" fill="none" stroke="#FFFFFF" stroke-width="2" stroke-miterlimit="10" x1="-291" y1="-166" x2="-281" y2="-166"/>
		
			<line opacity="0.5" fill="none" stroke="#FFFFFF" stroke-width="2" stroke-miterlimit="10" x1="-291" y1="-209" x2="-281" y2="-209"/>
		
			<line opacity="0.5" fill="none" stroke="#FFFFFF" stroke-width="2" stroke-miterlimit="10" x1="-291" y1="-194" x2="-281" y2="-194"/>
		
			<line opacity="0.5" fill="none" stroke="#FFFFFF" stroke-width="2" stroke-miterlimit="10" x1="-291" y1="-223" x2="-281" y2="-223"/>
		
			<line opacity="0.5" fill="none" stroke="#FFFFFF" stroke-width="2" stroke-miterlimit="10" x1="-291" y1="-238" x2="-281" y2="-238"/>
		
			<line opacity="0.5" fill="none" stroke="#FFFFFF" stroke-width="2" stroke-miterlimit="10" x1="-291" y1="-281" x2="-281" y2="-281"/>
		
			<line opacity="0.5" fill="none" stroke="#FFFFFF" stroke-width="2" stroke-miterlimit="10" x1="-291" y1="-266" x2="-281" y2="-266"/>
		
			<line opacity="0.5" fill="none" stroke="#FFFFFF" stroke-width="2" stroke-miterlimit="10" x1="-291" y1="-295" x2="-281" y2="-295"/>
		
			<line opacity="0.5" fill="none" stroke="#FFFFFF" stroke-width="2" stroke-miterlimit="10" x1="-291" y1="-310" x2="-281" y2="-310"/>
		
			<line opacity="0.5" fill="none" stroke="#FFFFFF" stroke-width="2" stroke-miterlimit="10" x1="-291" y1="-353" x2="-281" y2="-353"/>
		
			<line opacity="0.5" fill="none" stroke="#FFFFFF" stroke-width="2" stroke-miterlimit="10" x1="-291" y1="-338" x2="-281" y2="-338"/>
		
			<line opacity="0.5" fill="none" stroke="#FFFFFF" stroke-width="2" stroke-miterlimit="10" x1="-291" y1="-367" x2="-281" y2="-367"/>
		
			<line opacity="0.5" fill="none" stroke="#FFFFFF" stroke-width="2" stroke-miterlimit="10" x1="-291" y1="-382" x2="-281" y2="-382"/>
		<line opacity="0.5" fill="none" stroke="#FFFFFF" stroke-width="2" stroke-miterlimit="10" x1="281" y1="367" x2="291" y2="367"/>
		<line opacity="0.5" fill="none" stroke="#FFFFFF" stroke-width="2" stroke-miterlimit="10" x1="281" y1="382" x2="291" y2="382"/>
		<line opacity="0.5" fill="none" stroke="#FFFFFF" stroke-width="2" stroke-miterlimit="10" x1="281" y1="353" x2="291" y2="353"/>
		<line opacity="0.5" fill="none" stroke="#FFFFFF" stroke-width="2" stroke-miterlimit="10" x1="281" y1="338" x2="291" y2="338"/>
		<line opacity="0.5" fill="none" stroke="#FFFFFF" stroke-width="2" stroke-miterlimit="10" x1="281" y1="295" x2="291" y2="295"/>
		<line opacity="0.5" fill="none" stroke="#FFFFFF" stroke-width="2" stroke-miterlimit="10" x1="281" y1="310" x2="291" y2="310"/>
		<line opacity="0.5" fill="none" stroke="#FFFFFF" stroke-width="2" stroke-miterlimit="10" x1="281" y1="281" x2="291" y2="281"/>
		<line opacity="0.5" fill="none" stroke="#FFFFFF" stroke-width="2" stroke-miterlimit="10" x1="281" y1="266" x2="291" y2="266"/>
		<line opacity="0.5" fill="none" stroke="#FFFFFF" stroke-width="2" stroke-miterlimit="10" x1="281" y1="223" x2="291" y2="223"/>
		<line opacity="0.5" fill="none" stroke="#FFFFFF" stroke-width="2" stroke-miterlimit="10" x1="281" y1="238" x2="291" y2="238"/>
		<line opacity="0.5" fill="none" stroke="#FFFFFF" stroke-width="2" stroke-miterlimit="10" x1="281" y1="209" x2="291" y2="209"/>
		<line opacity="0.5" fill="none" stroke="#FFFFFF" stroke-width="2" stroke-miterlimit="10" x1="281" y1="194" x2="291" y2="194"/>
		<line opacity="0.5" fill="none" stroke="#FFFFFF" stroke-width="2" stroke-miterlimit="10" x1="281" y1="151" x2="291" y2="151"/>
		<line opacity="0.5" fill="none" stroke="#FFFFFF" stroke-width="2" stroke-miterlimit="10" x1="281" y1="166" x2="291" y2="166"/>
		<line opacity="0.5" fill="none" stroke="#FFFFFF" stroke-width="2" stroke-miterlimit="10" x1="281" y1="137" x2="291" y2="137"/>
		<line opacity="0.5" fill="none" stroke="#FFFFFF" stroke-width="2" stroke-miterlimit="10" x1="281" y1="122" x2="291" y2="122"/>
		<line opacity="0.5" fill="none" stroke="#FFFFFF" stroke-width="2" stroke-miterlimit="10" x1="281" y1="79" x2="291" y2="79"/>
		<line opacity="0.5" fill="none" stroke="#FFFFFF" stroke-width="2" stroke-miterlimit="10" x1="281" y1="94" x2="291" y2="94"/>
		<line opacity="0.5" fill="none" stroke="#FFFFFF" stroke-width="2" stroke-miterlimit="10" x1="281" y1="65" x2="291" y2="65"/>
		<line opacity="0.5" fill="none" stroke="#FFFFFF" stroke-width="2" stroke-miterlimit="10" x1="281" y1="50" x2="291" y2="50"/>
		<line opacity="0.5" fill="none" stroke="#FFFFFF" stroke-width="2" stroke-miterlimit="10" x1="281" y1="7" x2="291" y2="7"/>
		<line opacity="0.5" fill="none" stroke="#FFFFFF" stroke-width="2" stroke-miterlimit="10" x1="281" y1="22" x2="291" y2="22"/>
		<line opacity="0.5" fill="none" stroke="#FFFFFF" stroke-width="2" stroke-miterlimit="10" x1="281" y1="-7" x2="291" y2="-7"/>
		<line opacity="0.5" fill="none" stroke="#FFFFFF" stroke-width="2" stroke-miterlimit="10" x1="281" y1="-22" x2="291" y2="-22"/>
		<line opacity="0.5" fill="none" stroke="#FFFFFF" stroke-width="2" stroke-miterlimit="10" x1="281" y1="-65" x2="291" y2="-65"/>
		<line opacity="0.5" fill="none" stroke="#FFFFFF" stroke-width="2" stroke-miterlimit="10" x1="281" y1="-50" x2="291" y2="-50"/>
		<line opacity="0.5" fill="none" stroke="#FFFFFF" stroke-width="2" stroke-miterlimit="10" x1="281" y1="-79" x2="291" y2="-79"/>
		<line opacity="0.5" fill="none" stroke="#FFFFFF" stroke-width="2" stroke-miterlimit="10" x1="281" y1="-94" x2="291" y2="-94"/>
		
			<line opacity="0.5" fill="none" stroke="#FFFFFF" stroke-width="2" stroke-miterlimit="10" x1="281" y1="-137" x2="291" y2="-137"/>
		
			<line opacity="0.5" fill="none" stroke="#FFFFFF" stroke-width="2" stroke-miterlimit="10" x1="281" y1="-122" x2="291" y2="-122"/>
		
			<line opacity="0.5" fill="none" stroke="#FFFFFF" stroke-width="2" stroke-miterlimit="10" x1="281" y1="-151" x2="291" y2="-151"/>
		
			<line opacity="0.5" fill="none" stroke="#FFFFFF" stroke-width="2" stroke-miterlimit="10" x1="281" y1="-166" x2="291" y2="-166"/>
		
			<line opacity="0.5" fill="none" stroke="#FFFFFF" stroke-width="2" stroke-miterlimit="10" x1="281" y1="-209" x2="291" y2="-209"/>
		
			<line opacity="0.5" fill="none" stroke="#FFFFFF" stroke-width="2" stroke-miterlimit="10" x1="281" y1="-194" x2="291" y2="-194"/>
		
			<line opacity="0.5" fill="none" stroke="#FFFFFF" stroke-width="2" stroke-miterlimit="10" x1="281" y1="-223" x2="291" y2="-223"/>
		
			<line opacity="0.5" fill="none" stroke="#FFFFFF" stroke-width="2" stroke-miterlimit="10" x1="281" y1="-238" x2="291" y2="-238"/>
		
			<line opacity="0.5" fill="none" stroke="#FFFFFF" stroke-width="2" stroke-miterlimit="10" x1="281" y1="-281" x2="291" y2="-281"/>
		
			<line opacity="0.5" fill="none" stroke="#FFFFFF" stroke-width="2" stroke-miterlimit="10" x1="281" y1="-266" x2="291" y2="-266"/>
		
			<line opacity="0.5" fill="none" stroke="#FFFFFF" stroke-width="2" stroke-miterlimit="10" x1="281" y1="-295" x2="291" y2="-295"/>
		
			<line opacity="0.5" fill="none" stroke="#FFFFFF" stroke-width="2" stroke-miterlimit="10" x1="281" y1="-310" x2="291" y2="-310"/>
		
			<line opacity="0.5" fill="none" stroke="#FFFFFF" stroke-width="2" stroke-miterlimit="10" x1="281" y1="-353" x2="291" y2="-353"/>
		
			<line opacity="0.5" fill="none" stroke="#FFFFFF" stroke-width="2" stroke-miterlimit="10" x1="281" y1="-338" x2="291" y2="-338"/>
		
			<line opacity="0.5" fill="none" stroke="#FFFFFF" stroke-width="2" stroke-miterlimit="10" x1="281" y1="-367" x2="291" y2="-367"/>
		
			<line opacity="0.5" fill="none" stroke="#FFFFFF" stroke-width="2" stroke-miterlimit="10" x1="281" y1="-382" x2="291" y2="-382"/>
		<line opacity="0.5" fill="none" stroke="#FFFFFF" stroke-width="2" stroke-miterlimit="10" x1="-97" y1="367" x2="-87" y2="367"/>
		<line opacity="0.5" fill="none" stroke="#FFFFFF" stroke-width="2" stroke-miterlimit="10" x1="-97" y1="382" x2="-87" y2="382"/>
		<line opacity="0.5" fill="none" stroke="#FFFFFF" stroke-width="2" stroke-miterlimit="10" x1="-97" y1="353" x2="-87" y2="353"/>
		<line opacity="0.5" fill="none" stroke="#FFFFFF" stroke-width="2" stroke-miterlimit="10" x1="-97" y1="338" x2="-87" y2="338"/>
		<line opacity="0.5" fill="none" stroke="#FFFFFF" stroke-width="2" stroke-miterlimit="10" x1="-97" y1="295" x2="-87" y2="295"/>
		<line opacity="0.5" fill="none" stroke="#FFFFFF" stroke-width="2" stroke-miterlimit="10" x1="-97" y1="310" x2="-87" y2="310"/>
		<line opacity="0.5" fill="none" stroke="#FFFFFF" stroke-width="2" stroke-miterlimit="10" x1="-97" y1="281" x2="-87" y2="281"/>
		<line opacity="0.5" fill="none" stroke="#FFFFFF" stroke-width="2" stroke-miterlimit="10" x1="-97" y1="266" x2="-87" y2="266"/>
		<line opacity="0.5" fill="none" stroke="#FFFFFF" stroke-width="2" stroke-miterlimit="10" x1="-97" y1="223" x2="-87" y2="223"/>
		<line opacity="0.5" fill="none" stroke="#FFFFFF" stroke-width="2" stroke-miterlimit="10" x1="-97" y1="238" x2="-87" y2="238"/>
		<line opacity="0.5" fill="none" stroke="#FFFFFF" stroke-width="2" stroke-miterlimit="10" x1="-97" y1="209" x2="-87" y2="209"/>
		<line opacity="0.5" fill="none" stroke="#FFFFFF" stroke-width="2" stroke-miterlimit="10" x1="-97" y1="194" x2="-87" y2="194"/>
		<line opacity="0.5" fill="none" stroke="#FFFFFF" stroke-width="2" stroke-miterlimit="10" x1="-97" y1="151" x2="-87" y2="151"/>
		<line opacity="0.5" fill="none" stroke="#FFFFFF" stroke-width="2" stroke-miterlimit="10" x1="-97" y1="166" x2="-87" y2="166"/>
		<line opacity="0.5" fill="none" stroke="#FFFFFF" stroke-width="2" stroke-miterlimit="10" x1="-97" y1="137" x2="-87" y2="137"/>
		<line opacity="0.5" fill="none" stroke="#FFFFFF" stroke-width="2" stroke-miterlimit="10" x1="-97" y1="122" x2="-87" y2="122"/>
		<line opacity="0.5" fill="none" stroke="#FFFFFF" stroke-width="2" stroke-miterlimit="10" x1="-97" y1="79" x2="-87" y2="79"/>
		<line opacity="0.5" fill="none" stroke="#FFFFFF" stroke-width="2" stroke-miterlimit="10" x1="-97" y1="94" x2="-87" y2="94"/>
		<line opacity="0.5" fill="none" stroke="#FFFFFF" stroke-width="2" stroke-miterlimit="10" x1="-97" y1="65" x2="-87" y2="65"/>
		<line opacity="0.5" fill="none" stroke="#FFFFFF" stroke-width="2" stroke-miterlimit="10" x1="-97" y1="50" x2="-87" y2="50"/>
		<line opacity="0.5" fill="none" stroke="#FFFFFF" stroke-width="2" stroke-miterlimit="10" x1="-97" y1="7" x2="-87" y2="7"/>
		<line opacity="0.5" fill="none" stroke="#FFFFFF" stroke-width="2" stroke-miterlimit="10" x1="-97" y1="22" x2="-87" y2="22"/>
		<line opacity="0.5" fill="none" stroke="#FFFFFF" stroke-width="2" stroke-miterlimit="10" x1="-97" y1="-7" x2="-87" y2="-7"/>
		<line opacity="0.5" fill="none" stroke="#FFFFFF" stroke-width="2" stroke-miterlimit="10" x1="-97" y1="-22" x2="-87" y2="-22"/>
		<line opacity="0.5" fill="none" stroke="#FFFFFF" stroke-width="2" stroke-miterlimit="10" x1="-97" y1="-65" x2="-87" y2="-65"/>
		<line opacity="0.5" fill="none" stroke="#FFFFFF" stroke-width="2" stroke-miterlimit="10" x1="-97" y1="-50" x2="-87" y2="-50"/>
		<line opacity="0.5" fill="none" stroke="#FFFFFF" stroke-width="2" stroke-miterlimit="10" x1="-97" y1="-79" x2="-87" y2="-79"/>
		<line opacity="0.5" fill="none" stroke="#FFFFFF" stroke-width="2" stroke-miterlimit="10" x1="-97" y1="-94" x2="-87" y2="-94"/>
		
			<line opacity="0.5" fill="none" stroke="#FFFFFF" stroke-width="2" stroke-miterlimit="10" x1="-97" y1="-137" x2="-87" y2="-137"/>
		
			<line opacity="0.5" fill="none" stroke="#FFFFFF" stroke-width="2" stroke-miterlimit="10" x1="-97" y1="-122" x2="-87" y2="-122"/>
		
			<line opacity="0.5" fill="none" stroke="#FFFFFF" stroke-width="2" stroke-miterlimit="10" x1="-97" y1="-151" x2="-87" y2="-151"/>
		
			<line opacity="0.5" fill="none" stroke="#FFFFFF" stroke-width="2" stroke-miterlimit="10" x1="-97" y1="-166" x2="-87" y2="-166"/>
		
			<line opacity="0.5" fill="none" stroke="#FFFFFF" stroke-width="2" stroke-miterlimit="10" x1="-97" y1="-209" x2="-87" y2="-209"/>
		
			<line opacity="0.5" fill="none" stroke="#FFFFFF" stroke-width="2" stroke-miterlimit="10" x1="-97" y1="-194" x2="-87" y2="-194"/>
		
			<line opacity="0.5" fill="none" stroke="#FFFFFF" stroke-width="2" stroke-miterlimit="10" x1="-97" y1="-223" x2="-87" y2="-223"/>
		
			<line opacity="0.5" fill="none" stroke="#FFFFFF" stroke-width="2" stroke-miterlimit="10" x1="-97" y1="-238" x2="-87" y2="-238"/>
		
			<line opacity="0.5" fill="none" stroke="#FFFFFF" stroke-width="2" stroke-miterlimit="10" x1="-97" y1="-281" x2="-87" y2="-281"/>
		
			<line opacity="0.5" fill="none" stroke="#FFFFFF" stroke-width="2" stroke-miterlimit="10" x1="-97" y1="-266" x2="-87" y2="-266"/>
		
			<line opacity="0.5" fill="none" stroke="#FFFFFF" stroke-width="2" stroke-miterlimit="10" x1="-97" y1="-295" x2="-87" y2="-295"/>
		
			<line opacity="0.5" fill="none" stroke="#FFFFFF" stroke-width="2" stroke-miterlimit="10" x1="-97" y1="-310" x2="-87" y2="-310"/>
		
			<line opacity="0.5" fill="none" stroke="#FFFFFF" stroke-width="2" stroke-miterlimit="10" x1="-97" y1="-353" x2="-87" y2="-353"/>
		
			<line opacity="0.5" fill="none" stroke="#FFFFFF" stroke-width="2" stroke-miterlimit="10" x1="-97" y1="-338" x2="-87" y2="-338"/>
		
			<line opacity="0.5" fill="none" stroke="#FFFFFF" stroke-width="2" stroke-miterlimit="10" x1="-97" y1="-367" x2="-87" y2="-367"/>
		
			<line opacity="0.5" fill="none" stroke="#FFFFFF" stroke-width="2" stroke-miterlimit="10" x1="-97" y1="-382" x2="-87" y2="-382"/>
		<line opacity="0.5" fill="none" stroke="#FFFFFF" stroke-width="2" stroke-miterlimit="10" x1="87" y1="367" x2="97" y2="367"/>
		<line opacity="0.5" fill="none" stroke="#FFFFFF" stroke-width="2" stroke-miterlimit="10" x1="87" y1="382" x2="97" y2="382"/>
		<line opacity="0.5" fill="none" stroke="#FFFFFF" stroke-width="2" stroke-miterlimit="10" x1="87" y1="353" x2="97" y2="353"/>
		<line opacity="0.5" fill="none" stroke="#FFFFFF" stroke-width="2" stroke-miterlimit="10" x1="87" y1="338" x2="97" y2="338"/>
		<line opacity="0.5" fill="none" stroke="#FFFFFF" stroke-width="2" stroke-miterlimit="10" x1="87" y1="295" x2="97" y2="295"/>
		<line opacity="0.5" fill="none" stroke="#FFFFFF" stroke-width="2" stroke-miterlimit="10" x1="87" y1="310" x2="97" y2="310"/>
		<line opacity="0.5" fill="none" stroke="#FFFFFF" stroke-width="2" stroke-miterlimit="10" x1="87" y1="281" x2="97" y2="281"/>
		<line opacity="0.5" fill="none" stroke="#FFFFFF" stroke-width="2" stroke-miterlimit="10" x1="87" y1="266" x2="97" y2="266"/>
		<line opacity="0.5" fill="none" stroke="#FFFFFF" stroke-width="2" stroke-miterlimit="10" x1="87" y1="223" x2="97" y2="223"/>
		<line opacity="0.5" fill="none" stroke="#FFFFFF" stroke-width="2" stroke-miterlimit="10" x1="87" y1="238" x2="97" y2="238"/>
		<line opacity="0.5" fill="none" stroke="#FFFFFF" stroke-width="2" stroke-miterlimit="10" x1="87" y1="209" x2="97" y2="209"/>
		<line opacity="0.5" fill="none" stroke="#FFFFFF" stroke-width="2" stroke-miterlimit="10" x1="87" y1="194" x2="97" y2="194"/>
		<line opacity="0.5" fill="none" stroke="#FFFFFF" stroke-width="2" stroke-miterlimit="10" x1="87" y1="151" x2="97" y2="151"/>
		<line opacity="0.5" fill="none" stroke="#FFFFFF" stroke-width="2" stroke-miterlimit="10" x1="87" y1="166" x2="97" y2="166"/>
		<line opacity="0.5" fill="none" stroke="#FFFFFF" stroke-width="2" stroke-miterlimit="10" x1="87" y1="137" x2="97" y2="137"/>
		<line opacity="0.5" fill="none" stroke="#FFFFFF" stroke-width="2" stroke-miterlimit="10" x1="87" y1="122" x2="97" y2="122"/>
		<line opacity="0.5" fill="none" stroke="#FFFFFF" stroke-width="2" stroke-miterlimit="10" x1="87" y1="79" x2="97" y2="79"/>
		<line opacity="0.5" fill="none" stroke="#FFFFFF" stroke-width="2" stroke-miterlimit="10" x1="87" y1="94" x2="97" y2="94"/>
		<line opacity="0.5" fill="none" stroke="#FFFFFF" stroke-width="2" stroke-miterlimit="10" x1="87" y1="65" x2="97" y2="65"/>
		<line opacity="0.5" fill="none" stroke="#FFFFFF" stroke-width="2" stroke-miterlimit="10" x1="87" y1="50" x2="97" y2="50"/>
		<line opacity="0.5" fill="none" stroke="#FFFFFF" stroke-width="2" stroke-miterlimit="10" x1="87" y1="7" x2="97" y2="7"/>
		<line opacity="0.5" fill="none" stroke="#FFFFFF" stroke-width="2" stroke-miterlimit="10" x1="87" y1="22" x2="97" y2="22"/>
		<line opacity="0.5" fill="none" stroke="#FFFFFF" stroke-width="2" stroke-miterlimit="10" x1="87" y1="-7" x2="97" y2="-7"/>
		<line opacity="0.5" fill="none" stroke="#FFFFFF" stroke-width="2" stroke-miterlimit="10" x1="87" y1="-22" x2="97" y2="-22"/>
		<line opacity="0.5" fill="none" stroke="#FFFFFF" stroke-width="2" stroke-miterlimit="10" x1="87" y1="-65" x2="97" y2="-65"/>
		<line opacity="0.5" fill="none" stroke="#FFFFFF" stroke-width="2" stroke-miterlimit="10" x1="87" y1="-50" x2="97" y2="-50"/>
		<line opacity="0.5" fill="none" stroke="#FFFFFF" stroke-width="2" stroke-miterlimit="10" x1="87" y1="-79" x2="97" y2="-79"/>
		<line opacity="0.5" fill="none" stroke="#FFFFFF" stroke-width="2" stroke-miterlimit="10" x1="87" y1="-94" x2="97" y2="-94"/>
		<line opacity="0.5" fill="none" stroke="#FFFFFF" stroke-width="2" stroke-miterlimit="10" x1="87" y1="-137" x2="97" y2="-137"/>
		<line opacity="0.5" fill="none" stroke="#FFFFFF" stroke-width="2" stroke-miterlimit="10" x1="87" y1="-122" x2="97" y2="-122"/>
		<line opacity="0.5" fill="none" stroke="#FFFFFF" stroke-width="2" stroke-miterlimit="10" x1="87" y1="-151" x2="97" y2="-151"/>
		<line opacity="0.5" fill="none" stroke="#FFFFFF" stroke-width="2" stroke-miterlimit="10" x1="87" y1="-166" x2="97" y2="-166"/>
		<line opacity="0.5" fill="none" stroke="#FFFFFF" stroke-width="2" stroke-miterlimit="10" x1="87" y1="-209" x2="97" y2="-209"/>
		<line opacity="0.5" fill="none" stroke="#FFFFFF" stroke-width="2" stroke-miterlimit="10" x1="87" y1="-194" x2="97" y2="-194"/>
		<line opacity="0.5" fill="none" stroke="#FFFFFF" stroke-width="2" stroke-miterlimit="10" x1="87" y1="-223" x2="97" y2="-223"/>
		<line opacity="0.5" fill="none" stroke="#FFFFFF" stroke-width="2" stroke-miterlimit="10" x1="87" y1="-238" x2="97" y2="-238"/>
		<line opacity="0.5" fill="none" stroke="#FFFFFF" stroke-width="2" stroke-miterlimit="10" x1="87" y1="-281" x2="97" y2="-281"/>
		<line opacity="0.5" fill="none" stroke="#FFFFFF" stroke-width="2" stroke-miterlimit="10" x1="87" y1="-266" x2="97" y2="-266"/>
		<line opacity="0.5" fill="none" stroke="#FFFFFF" stroke-width="2" stroke-miterlimit="10" x1="87" y1="-295" x2="97" y2="-295"/>
		<line opacity="0.5" fill="none" stroke="#FFFFFF" stroke-width="2" stroke-miterlimit="10" x1="87" y1="-310" x2="97" y2="-310"/>
		<line opacity="0.5" fill="none" stroke="#FFFFFF" stroke-width="2" stroke-miterlimit="10" x1="87" y1="-353" x2="97" y2="-353"/>
		<line opacity="0.5" fill="none" stroke="#FFFFFF" stroke-width="2" stroke-miterlimit="10" x1="87" y1="-338" x2="97" y2="-338"/>
		<line opacity="0.5" fill="none" stroke="#FFFFFF" stroke-width="2" stroke-miterlimit="10" x1="87" y1="-367" x2="97" y2="-367"/>
		<line opacity="0.5" fill="none" stroke="#FFFFFF" stroke-width="2" stroke-miterlimit="10" x1="87" y1="-382" x2="97" y2="-382"/>
	</g>
	<g>
		
			<text transform="matrix(0 -1 -1 0 -257.6924 274.6719)" opacity="0.5" fill="#FFFFFF" font-family="'StencilStd'" font-size="36" letter-spacing="3">10</text>
		
			<text transform="matrix(0 -1 -1 0 -257.6924 134.2705)" opacity="0.5" fill="#FFFFFF" font-family="'StencilStd'" font-size="36" letter-spacing="7">20</text>
		
			<text transform="matrix(0 -1 -1 0 -257.6924 -9.7295)" opacity="0.5" fill="#FFFFFF" font-family="'StencilStd'" font-size="36" letter-spacing="7">30</text>
		
			<text transform="matrix(0 -1 -1 0 -257.6924 -153.7295)" opacity="0.5" fill="#FFFFFF" font-family="'StencilStd'" font-size="36" letter-spacing="7">40</text>
		
			<text transform="matrix(0 -1 -1 0 -257.6924 -297.7295)" opacity="0.5" fill="#FFFFFF" font-family="'StencilStd'" font-size="36" letter-spacing="7">50</text>
		
			<text transform="matrix(0 1 1 0 250.4385 229.1113)" opacity="0.5" fill="#FFFFFF" font-family="'StencilStd'" font-size="36" letter-spacing="3">10</text>
		
			<text transform="matrix(0 1 1 0 250.4385 81.5107)" opacity="0.5" fill="#FFFFFF" font-family="'StencilStd'" font-size="36" letter-spacing="7">20</text>
		
			<text transform="matrix(0 1 1 0 250.4385 -62.4893)" opacity="0.5" fill="#FFFFFF" font-family="'StencilStd'" font-size="36" letter-spacing="7">30</text>
		
			<text transform="matrix(0 1 1 0 250.4385 -206.4893)" opacity="0.5" fill="#FFFFFF" font-family="'StencilStd'" font-size="36" letter-spacing="7">40</text>
		
			<text transform="matrix(0 1 1 0 250.4385 -350.4893)" opacity="0.5" fill="#FFFFFF" font-family="'StencilStd'" font-size="36" letter-spacing="7">50</text>
	</g>
	<polygon display="none" fill="none" points="-306,396 306,396 306,-396 -306,-396 	"/>
</symbol>
<symbol  id="playcard" viewBox="-127 -91 253 181">
	<path fill="#FFFFFF" stroke="#BDCCD4" stroke-miterlimit="10" d="M125.5-80.5c0-5.523-4.477-10-10-10h-232c-5.523,0-10,4.477-10,10
		v160c0,5.523,4.477,10,10,10h232c5.523,0,10-4.477,10-10V-80.5z"/>
	<polygon display="none" fill="none" points="-127,90 126,90 126,-91 -127,-91 	"/>
</symbol>
<symbol  id="yards-grid_3_" viewBox="-200.601 -240.5 401.201 481">
	<polygon fill="none" stroke="#000000" stroke-miterlimit="10" points="200.1,-240 -199.9,-240 -199.9,240 200.1,240 	"/>
	<g id="yards-grid_2_">
		<line fill="none" stroke="#010101" stroke-miterlimit="10" x1="-200.399" y1="160" x2="199.6" y2="160"/>
		<line fill="none" stroke="#010101" stroke-miterlimit="10" x1="-200.399" y1="160" x2="199.6" y2="160"/>
		<line fill="none" stroke="#010101" stroke-miterlimit="10" x1="-200.399" y1="120" x2="199.6" y2="120"/>
		<line fill="none" stroke="#010101" stroke-miterlimit="10" x1="-200.399" y1="120" x2="199.6" y2="120"/>
		<line fill="none" stroke="#010101" stroke-miterlimit="10" x1="-200.399" y1="80" x2="199.6" y2="80"/>
		<line fill="none" stroke="#010101" stroke-miterlimit="10" x1="-200.399" y1="80" x2="199.6" y2="80"/>
		<line fill="none" stroke="#010101" stroke-miterlimit="10" x1="-200.399" y1="40" x2="199.6" y2="40"/>
		<line fill="none" stroke="#010101" stroke-miterlimit="10" x1="-200.399" y1="40" x2="199.6" y2="40"/>
		<line fill="none" stroke="#010101" stroke-miterlimit="10" x1="-200.399" y1="0" x2="199.6" y2="0"/>
		<line fill="none" stroke="#010101" stroke-miterlimit="10" x1="-200.399" y1="0" x2="199.6" y2="0"/>
		<line fill="none" stroke="#010101" stroke-miterlimit="10" x1="-200.399" y1="-40" x2="199.6" y2="-40"/>
		<line fill="none" stroke="#010101" stroke-miterlimit="10" x1="-200.399" y1="-40" x2="199.6" y2="-40"/>
		<line fill="none" stroke="#010101" stroke-miterlimit="10" x1="-200.399" y1="-80" x2="199.6" y2="-80"/>
		<line fill="none" stroke="#010101" stroke-miterlimit="10" x1="-200.399" y1="-80" x2="199.6" y2="-80"/>
		<line fill="none" stroke="#010101" stroke-miterlimit="10" x1="-200.399" y1="-120" x2="199.6" y2="-120"/>
		<line fill="none" stroke="#010101" stroke-miterlimit="10" x1="-200.399" y1="-120" x2="199.6" y2="-120"/>
		<line fill="none" stroke="#010101" stroke-miterlimit="10" x1="-200.399" y1="-160" x2="199.6" y2="-160"/>
		<line fill="none" stroke="#010101" stroke-miterlimit="10" x1="-200.399" y1="-160" x2="199.6" y2="-160"/>
		<g>
			<line fill="none" stroke="#010101" stroke-miterlimit="10" x1="-119.899" y1="200.5" x2="-119.899" y2="-199.5"/>
			<line fill="none" stroke="#010101" stroke-miterlimit="10" x1="-79.899" y1="200.5" x2="-79.899" y2="-199.5"/>
			<line fill="none" stroke="#010101" stroke-miterlimit="10" x1="-39.899" y1="200.5" x2="-39.899" y2="-199.5"/>
			<line fill="none" stroke="#010101" stroke-miterlimit="10" x1="0.101" y1="200.5" x2="0.101" y2="-199.5"/>
			<line fill="none" stroke="#010101" stroke-miterlimit="10" x1="40.101" y1="200.5" x2="40.101" y2="-199.5"/>
			<line fill="none" stroke="#010101" stroke-miterlimit="10" x1="80.101" y1="200.5" x2="80.101" y2="-199.5"/>
			<line fill="none" stroke="#010101" stroke-miterlimit="10" x1="120.101" y1="200.5" x2="120.101" y2="-199.5"/>
			<line fill="none" stroke="#010101" stroke-miterlimit="10" x1="160.1" y1="200.5" x2="160.1" y2="-199.5"/>
			<line fill="none" stroke="#010101" stroke-miterlimit="10" x1="-119.899" y1="200.5" x2="-119.899" y2="-199.5"/>
			<line fill="none" stroke="#010101" stroke-miterlimit="10" x1="-79.899" y1="200.5" x2="-79.899" y2="-199.5"/>
			<line fill="none" stroke="#010101" stroke-miterlimit="10" x1="-39.899" y1="200.5" x2="-39.899" y2="-199.5"/>
			<line fill="none" stroke="#010101" stroke-miterlimit="10" x1="0.101" y1="200.5" x2="0.101" y2="-199.5"/>
			<line fill="none" stroke="#010101" stroke-miterlimit="10" x1="40.101" y1="200.5" x2="40.101" y2="-199.5"/>
			<line fill="none" stroke="#010101" stroke-miterlimit="10" x1="80.101" y1="200.5" x2="80.101" y2="-199.5"/>
			<line fill="none" stroke="#010101" stroke-miterlimit="10" x1="120.101" y1="200.5" x2="120.101" y2="-199.5"/>
			<line fill="none" stroke="#010101" stroke-miterlimit="10" x1="160.1" y1="200.5" x2="160.1" y2="-199.5"/>
			<line fill="none" stroke="#010101" stroke-miterlimit="10" x1="-159.899" y1="200.5" x2="-159.899" y2="-199.5"/>
			<line fill="none" stroke="#010101" stroke-miterlimit="10" x1="-159.899" y1="200.5" x2="-159.899" y2="-199.5"/>
		</g>
		
			<text transform="matrix(1 0 0 -1 -167.3789 210.7031)" fill="#FFFFFF" font-family="'StencilStd'" font-size="22" letter-spacing="31">END zONE</text>
		
			<text transform="matrix(-1 0 0 1 166.9521 -212.0742)" fill="#FFFFFF" font-family="'StencilStd'" font-size="22" letter-spacing="31">END ZONE</text>
		<text transform="matrix(1 0 0 -1 171.4824 -65.2441)" fill="#010101" font-family="'StencilStd'" font-size="14">40</text>
		<text transform="matrix(1 0 0 -1 171.4824 14.8945)" fill="#010101" font-family="'StencilStd'" font-size="14">40</text>
		<text transform="matrix(1 0 0 -1 171.4824 -105.3145)" fill="#010101" font-family="'StencilStd'" font-size="14">30</text>
		<text transform="matrix(1 0 0 -1 171.4824 54.9629)" fill="#010101" font-family="'StencilStd'" font-size="14">30</text>
		<text transform="matrix(1 0 0 -1 171.4824 -145.3828)" fill="#010101" font-family="'StencilStd'" font-size="14">20</text>
		<text transform="matrix(1 0 0 -1 171.4824 95.0332)" fill="#010101" font-family="'StencilStd'" font-size="14">20</text>
		<text transform="matrix(1 0 0 -1 171.4824 -185.4531)" fill="#010101" font-family="'StencilStd'" font-size="14">10</text>
		<text transform="matrix(1 0 0 -1 171.4824 135.1016)" fill="#010101" font-family="'StencilStd'" font-size="14">10</text>
		<text transform="matrix(1 0 0 -1 -188.5215 -25.1758)" fill="#010101" font-family="'StencilStd'" font-size="14">41</text>
		<text transform="matrix(1 0 0 -1 -188.5215 14.8945)" fill="#010101" font-family="'StencilStd'" font-size="14">49</text>
		<text transform="matrix(1 0 0 -1 -188.5215 -65.2441)" fill="#010101" font-family="'StencilStd'" font-size="14">31</text>
		<text transform="matrix(1 0 0 -1 -188.5215 -105.3145)" fill="#010101" font-family="'StencilStd'" font-size="14">21</text>
		<text transform="matrix(1 0 0 -1 -188.5215 -145.3828)" fill="#010101" font-family="'StencilStd'" font-size="14">11</text>
		<text transform="matrix(1 0 0 -1 -184.1113 -185.4531)" fill="#010101" font-family="'StencilStd'" font-size="14">1</text>
		<text transform="matrix(1 0 0 -1 -148.5488 -25.1758)" fill="#010101" font-family="'StencilStd'" font-size="14">42</text>
		<text transform="matrix(1 0 0 -1 -148.5488 -65.2441)" fill="#010101" font-family="'StencilStd'" font-size="14">32</text>
		<text transform="matrix(1 0 0 -1 -148.5488 -105.3145)" fill="#010101" font-family="'StencilStd'" font-size="14">22</text>
		<text transform="matrix(1 0 0 -1 -148.5488 -145.3828)" fill="#010101" font-family="'StencilStd'" font-size="14">12</text>
		<text transform="matrix(1 0 0 -1 -144.1113 -185.4531)" fill="#010101" font-family="'StencilStd'" font-size="14">2</text>
		<text transform="matrix(1 0 0 -1 -104.1113 -185.4531)" fill="#010101" font-family="'StencilStd'" font-size="14">3</text>
		<text transform="matrix(1 0 0 -1 -64.1113 -185.4531)" fill="#010101" font-family="'StencilStd'" font-size="14">4</text>
		<text transform="matrix(1 0 0 -1 -24.1113 -185.4531)" fill="#010101" font-family="'StencilStd'" font-size="14">5</text>
		<text transform="matrix(1 0 0 -1 15.8906 -185.4531)" fill="#010101" font-family="'StencilStd'" font-size="14">6</text>
		<text transform="matrix(1 0 0 -1 55.8906 -185.4531)" fill="#010101" font-family="'StencilStd'" font-size="14">7</text>
		<text transform="matrix(1 0 0 -1 95.8906 -185.4531)" fill="#010101" font-family="'StencilStd'" font-size="14">8</text>
		<text transform="matrix(1 0 0 -1 135.8145 -185.4531)" fill="#010101" font-family="'StencilStd'" font-size="14">9</text>
		<text transform="matrix(1 0 0 -1 -109.0645 -145.3828)" fill="#010101" font-family="'StencilStd'" font-size="14">13</text>
		<text transform="matrix(1 0 0 -1 -69.2207 -145.3828)" fill="#010101" font-family="'StencilStd'" font-size="14">14</text>
		<text transform="matrix(1 0 0 -1 -29.375 -145.3828)" fill="#010101" font-family="'StencilStd'" font-size="14">15</text>
		<text transform="matrix(1 0 0 -1 10.4707 -145.3828)" fill="#010101" font-family="'StencilStd'" font-size="14">16</text>
		<text transform="matrix(1 0 0 -1 50.3184 -145.3828)" fill="#010101" font-family="'StencilStd'" font-size="14">17</text>
		<text transform="matrix(1 0 0 -1 90.1621 -145.3828)" fill="#010101" font-family="'StencilStd'" font-size="14">18</text>
		<text transform="matrix(1 0 0 -1 131.4043 -145.3828)" fill="#010101" font-family="'StencilStd'" font-size="14">19</text>
		<text transform="matrix(1 0 0 -1 -111.4434 -105.3145)" fill="#010101" font-family="'StencilStd'" font-size="14"> 23</text>
		<text transform="matrix(1 0 0 -1 -71.5996 -105.3145)" fill="#010101" font-family="'StencilStd'" font-size="14"> 24</text>
		<text transform="matrix(1 0 0 -1 -31.7559 -105.3145)" fill="#010101" font-family="'StencilStd'" font-size="14"> 25</text>
		<text transform="matrix(1 0 0 -1 8.0918 -105.3145)" fill="#010101" font-family="'StencilStd'" font-size="14"> 26</text>
		<text transform="matrix(1 0 0 -1 47.9375 -105.3145)" fill="#010101" font-family="'StencilStd'" font-size="14"> 27</text>
		<text transform="matrix(1 0 0 -1 87.7832 -105.3145)" fill="#010101" font-family="'StencilStd'" font-size="14"> 28</text>
		<text transform="matrix(1 0 0 -1 131.4043 -105.3145)" fill="#010101" font-family="'StencilStd'" font-size="14">29</text>
		<text transform="matrix(1 0 0 -1 -109.0645 -65.2441)" fill="#010101" font-family="'StencilStd'" font-size="14">33</text>
		<text transform="matrix(1 0 0 -1 -69.2207 -65.2441)" fill="#010101" font-family="'StencilStd'" font-size="14">34</text>
		<text transform="matrix(1 0 0 -1 -29.375 -65.2441)" fill="#010101" font-family="'StencilStd'" font-size="14">35</text>
		<text transform="matrix(1 0 0 -1 10.4707 -65.2441)" fill="#010101" font-family="'StencilStd'" font-size="14">36</text>
		<text transform="matrix(1 0 0 -1 50.3184 -65.2441)" fill="#010101" font-family="'StencilStd'" font-size="14">37</text>
		<text transform="matrix(1 0 0 -1 90.1621 -65.2441)" fill="#010101" font-family="'StencilStd'" font-size="14">38</text>
		<text transform="matrix(1 0 0 -1 131.4043 -65.2441)" fill="#010101" font-family="'StencilStd'" font-size="14">39</text>
		<text transform="matrix(1 0 0 -1 -109.0645 -25.1758)" fill="#010101" font-family="'StencilStd'" font-size="14">43</text>
		<text transform="matrix(1 0 0 -1 -69.2207 -25.1758)" fill="#010101" font-family="'StencilStd'" font-size="14">44</text>
		<text transform="matrix(1 0 0 -1 -29.375 -25.1758)" fill="#010101" font-family="'StencilStd'" font-size="14">45</text>
		<text transform="matrix(1 0 0 -1 10.4707 -25.1758)" fill="#010101" font-family="'StencilStd'" font-size="14">46</text>
		<text transform="matrix(1 0 0 -1 50.3184 -25.1758)" fill="#010101" font-family="'StencilStd'" font-size="14">47</text>
		<text transform="matrix(1 0 0 -1 90.1621 -25.1758)" fill="#010101" font-family="'StencilStd'" font-size="14">48</text>
		<text transform="matrix(1 0 0 -1 131.4043 -25.1758)" fill="#010101" font-family="'StencilStd'" font-size="14">49</text>
		<text transform="matrix(1 0 0 -1 -148.5488 14.8945)" fill="#010101" font-family="'StencilStd'" font-size="14">48</text>
		<text transform="matrix(1 0 0 -1 -109.0645 14.8945)" fill="#010101" font-family="'StencilStd'" font-size="14">47</text>
		<text transform="matrix(1 0 0 -1 -69.2207 14.8945)" fill="#010101" font-family="'StencilStd'" font-size="14">46</text>
		<text transform="matrix(1 0 0 -1 -29.375 14.8945)" fill="#010101" font-family="'StencilStd'" font-size="14">45</text>
		<text transform="matrix(1 0 0 -1 10.4707 14.8945)" fill="#010101" font-family="'StencilStd'" font-size="14">44</text>
		<text transform="matrix(1 0 0 -1 50.3184 14.8945)" fill="#010101" font-family="'StencilStd'" font-size="14">43</text>
		<text transform="matrix(1 0 0 -1 90.1621 14.8945)" fill="#010101" font-family="'StencilStd'" font-size="14">42</text>
		<text transform="matrix(1 0 0 -1 131.4043 14.8945)" fill="#010101" font-family="'StencilStd'" font-size="14">41</text>
		<text transform="matrix(1 0 0 -1 -188.5215 54.9629)" fill="#010101" font-family="'StencilStd'" font-size="14">39</text>
		<text transform="matrix(1 0 0 -1 -148.5488 54.9629)" fill="#010101" font-family="'StencilStd'" font-size="14">38</text>
		<text transform="matrix(1 0 0 -1 -109.0645 54.9629)" fill="#010101" font-family="'StencilStd'" font-size="14">37</text>
		<text transform="matrix(1 0 0 -1 -69.2207 54.9629)" fill="#010101" font-family="'StencilStd'" font-size="14">36</text>
		<text transform="matrix(1 0 0 -1 -29.375 54.9629)" fill="#010101" font-family="'StencilStd'" font-size="14">35</text>
		<text transform="matrix(1 0 0 -1 10.4707 54.9629)" fill="#010101" font-family="'StencilStd'" font-size="14">34</text>
		<text transform="matrix(1 0 0 -1 50.3184 54.9629)" fill="#010101" font-family="'StencilStd'" font-size="14">33</text>
		<text transform="matrix(1 0 0 -1 90.1621 54.9629)" fill="#010101" font-family="'StencilStd'" font-size="14">32</text>
		<text transform="matrix(1 0 0 -1 131.4043 54.9629)" fill="#010101" font-family="'StencilStd'" font-size="14">31</text>
		<text transform="matrix(1 0 0 -1 -188.5215 95.0332)" fill="#010101" font-family="'StencilStd'" font-size="14">29</text>
		<text transform="matrix(1 0 0 -1 -148.5488 95.0332)" fill="#010101" font-family="'StencilStd'" font-size="14">28</text>
		<text transform="matrix(1 0 0 -1 -109.0645 95.0332)" fill="#010101" font-family="'StencilStd'" font-size="14">27</text>
		<text transform="matrix(1 0 0 -1 -69.2207 95.0332)" fill="#010101" font-family="'StencilStd'" font-size="14">26</text>
		<text transform="matrix(1 0 0 -1 -29.375 95.0332)" fill="#010101" font-family="'StencilStd'" font-size="14">25</text>
		<text transform="matrix(1 0 0 -1 10.4707 95.0332)" fill="#010101" font-family="'StencilStd'" font-size="14">24</text>
		<text transform="matrix(1 0 0 -1 50.3184 95.0332)" fill="#010101" font-family="'StencilStd'" font-size="14">23</text>
		<text transform="matrix(1 0 0 -1 90.1621 95.0332)" fill="#010101" font-family="'StencilStd'" font-size="14">22</text>
		<text transform="matrix(1 0 0 -1 131.4043 95.0332)" fill="#010101" font-family="'StencilStd'" font-size="14">21</text>
		<text transform="matrix(1 0 0 -1 -188.5215 135.1016)" fill="#010101" font-family="'StencilStd'" font-size="14">19</text>
		<text transform="matrix(1 0 0 -1 -148.5488 135.1016)" fill="#010101" font-family="'StencilStd'" font-size="14">18</text>
		<text transform="matrix(1 0 0 -1 -109.0645 135.1016)" fill="#010101" font-family="'StencilStd'" font-size="14">17</text>
		<text transform="matrix(1 0 0 -1 -69.2207 135.1016)" fill="#010101" font-family="'StencilStd'" font-size="14">16</text>
		<text transform="matrix(1 0 0 -1 -29.375 135.1016)" fill="#010101" font-family="'StencilStd'" font-size="14">15</text>
		<text transform="matrix(1 0 0 -1 10.4707 135.1016)" fill="#010101" font-family="'StencilStd'" font-size="14">14</text>
		<text transform="matrix(1 0 0 -1 50.3184 135.1016)" fill="#010101" font-family="'StencilStd'" font-size="14">13</text>
		<text transform="matrix(1 0 0 -1 90.1621 135.1016)" fill="#010101" font-family="'StencilStd'" font-size="14">12</text>
		<text transform="matrix(1 0 0 -1 131.4043 135.1016)" fill="#010101" font-family="'StencilStd'" font-size="14">11</text>
		<text transform="matrix(1 0 0 -1 -184.1113 175.6309)" fill="#010101" font-family="'StencilStd'" font-size="14">9</text>
		<text transform="matrix(1 0 0 -1 -144.1387 175.6309)" fill="#010101" font-family="'StencilStd'" font-size="14">8</text>
		<text transform="matrix(1 0 0 -1 -104.6543 175.6309)" fill="#010101" font-family="'StencilStd'" font-size="14">7</text>
		<text transform="matrix(1 0 0 -1 -64.8105 175.6309)" fill="#010101" font-family="'StencilStd'" font-size="14">6</text>
		<text transform="matrix(1 0 0 -1 -24.9648 175.6309)" fill="#010101" font-family="'StencilStd'" font-size="14">5</text>
		<text transform="matrix(1 0 0 -1 14.8809 175.6309)" fill="#010101" font-family="'StencilStd'" font-size="14">4</text>
		<text transform="matrix(1 0 0 -1 54.7266 175.6309)" fill="#010101" font-family="'StencilStd'" font-size="14">3</text>
		<text transform="matrix(1 0 0 -1 94.5723 175.6309)" fill="#010101" font-family="'StencilStd'" font-size="14">2</text>
		<text transform="matrix(1 0 0 -1 135.8145 175.6309)" fill="#010101" font-family="'StencilStd'" font-size="14">1</text>
		<text transform="matrix(1 0 0 -1 171.4824 -25.1758)" fill="#010101" font-family="'StencilStd'" font-size="14">50</text>
		<line fill="none" stroke="#010101" stroke-miterlimit="10" x1="-200.399" y1="-200" x2="199.6" y2="-200"/>
		<line fill="none" stroke="#010101" stroke-miterlimit="10" x1="-200.399" y1="200" x2="199.6" y2="200"/>
	</g>
</symbol>
<g id="field">
	
		<use xlink:href="#field_2_"  width="612" height="792" id="XMLID_1_" x="-306" y="-396" transform="matrix(0 1 1 0 396 306)" overflow="visible"/>
</g>
<g id="Down">
	<circle opacity="0.5" fill="#FFFFFF" cx="528.798" cy="534.197" r="22.677"/>
	<circle opacity="0.5" fill="#FFFFFF" cx="591.798" cy="534.197" r="22.677"/>
	<circle opacity="0.5" fill="#FFFFFF" cx="654.798" cy="534.197" r="22.677"/>
	<circle opacity="0.5" fill="#FFFFFF" cx="717.798" cy="534.197" r="22.677"/>
	<text transform="matrix(1 0 0 1 595.4238 496.6494)" fill="#FFFFFF" font-family="'StencilStd'" font-size="18">DOWN</text>
	<text transform="matrix(1 0 0 1 523.2627 538.9844)" fill="#010101" font-family="'StencilStd'" font-size="18">1</text>
	<text transform="matrix(1 0 0 1 586.2432 538.9844)" fill="#010101" font-family="'StencilStd'" font-size="18">2</text>
	<text transform="matrix(1 0 0 1 649.2246 538.9844)" fill="#010101" font-family="'StencilStd'" font-size="18">3</text>
	<text transform="matrix(1 0 0 1 712.207 538.9844)" fill="#010101" font-family="'StencilStd'" font-size="18">4</text>
</g>
<g id="Card_Place_Holders">
	
		<use xlink:href="#playcard"  width="253" height="181" x="-127" y="-91" transform="matrix(1 0 0 -1 624 147)" overflow="visible" opacity="0.5"/>
	<text transform="matrix(1 0 0 1 544.0391 144.9209)"><tspan x="0" y="0" fill="#010101" font-family="'Seravek-Light'" font-size="18">Two Minute Warning</tspan><tspan x="26.152" y="18" fill="#010101" font-family="'Seravek-Light'" font-size="10">(Special cards face down)</tspan></text>
	
		<use xlink:href="#playcard"  width="253" height="181" x="-127" y="-91" transform="matrix(1 0 0 -1 624 358)" overflow="visible" opacity="0.5"/>
	<text transform="matrix(1 0 0 1 579.8438 355.9785)"><tspan x="0" y="0" fill="#010101" font-family="'Seravek-Light'" font-size="18">Discard Pile</tspan><tspan x="-14.747" y="18" fill="#010101" font-family="'Seravek-Light'" font-size="10">(Used Special cards face up)</tspan></text>
</g>
<g id="Layer_10">
	<rect x="62.5" y="66.5" fill="#FFFFFF" stroke="#000000" stroke-miterlimit="10" width="400" height="480"/>
	<rect x="62.5" y="66.5" fill="#ED1C24" stroke="#000000" stroke-miterlimit="10" width="400" height="40"/>
	<rect x="62.5" y="506.5" fill="#27AAE1" stroke="#000000" stroke-miterlimit="10" width="400" height="40"/>
	<rect x="52.5" y="56.5" opacity="0.7" fill="#FFFFFF" stroke="#010101" stroke-miterlimit="10" width="420" height="500"/>
	
		<use xlink:href="#yards-grid_3_"  width="401.201" height="481" x="-200.601" y="-240.5" transform="matrix(1 0 0 -1 262.4004 306.5)" overflow="visible"/>
</g>
<g id="Layer_5">
	<g id="field_1_">
	</g>
	<g id="Layer_8">
	</g>
</g>
<g id="Layer_9">
</g>
<g id="Layer_11">
	<g id="Layer_12">
	</g>
	<g id="Layer_14">
	</g>
	<g id="yards-grid">
		<g id="yards-grid_1_">
		</g>
	</g>
</g>
<g id="Layer_15">
</g>
<g id="Layer_6">
</g>
</svg>
