<?xml version="1.0" encoding="utf-8"?>
<!-- Generator: Adobe Illustrator 16.0.4, SVG Export Plug-In . SVG Version: 6.00 Build 0)  -->
<!DOCTYPE svg PUBLIC "-//W3C//DTD SVG 1.1//EN" "http://www.w3.org/Graphics/SVG/1.1/DTD/svg11.dtd">
<svg version="1.1" id="Layer_1" xmlns="http://www.w3.org/2000/svg" xmlns:xlink="http://www.w3.org/1999/xlink" x="0px" y="0px"
	 width="36px" height="36px" viewBox="0 0 36 36" enable-background="new 0 0 36 36" xml:space="preserve">
<g>
	<path d="M34.641,12.992C34.873,11.005,35,8.743,35,6.115c0-1.474-0.553-2.658-1.504-3.61C32.539,1.549,31.355,1,30.145,1
		c-2.721,0-5.051,0.137-7.109,0.384L34.641,12.992z"/>
	<path d="M17.331,2.549c-4.072,1.285-6.6,3.292-9.045,5.737c-1.63,1.629-3.922,4.45-5.499,9.28l15.705,15.705
		c4.832-1.582,7.574-3.91,9.225-5.555c2.469-2.475,4.488-4.945,5.768-9.014L17.331,2.549z M24.934,17.646
		C24.697,17.882,24.383,18,24.074,18s-0.623-0.118-0.859-0.354l-1.568-1.571L19.721,18l1.568,1.568c0.473,0.479,0.473,1.246,0,1.719
		c-0.236,0.236-0.545,0.357-0.859,0.357c-0.309,0-0.623-0.121-0.859-0.357l-1.568-1.568l-1.927,1.926l1.571,1.568
		c0.474,0.473,0.474,1.24,0,1.719c-0.239,0.236-0.548,0.352-0.859,0.352s-0.62-0.115-0.859-0.352l-1.568-1.574l-1.571,1.574
		l-1.716-1.719l1.568-1.568l-1.568-1.574c-0.476-0.473-0.476-1.24,0-1.716c0.473-0.473,1.243-0.473,1.716,0l1.571,1.571L16.285,18
		l-1.571-1.571c-0.473-0.473-0.473-1.24,0-1.716c0.476-0.476,1.243-0.476,1.719,0l1.569,1.571l1.926-1.926l-1.568-1.571
		c-0.477-0.476-0.477-1.243,0-1.716c0.473-0.476,1.24-0.476,1.713,0l1.574,1.568l1.568-1.568l1.719,1.716l-1.568,1.571l1.568,1.568
		C25.406,16.402,25.406,17.17,24.934,17.646z"/>
	<path d="M1.495,23.143C1.185,25.215,1,27.533,1,30.145c0,1.211,0.582,2.303,1.562,3.287C3.543,34.41,4.642,35,6.198,35
		c2.498,0,4.718-0.166,6.704-0.453L1.495,23.143z"/>
</g>
</svg>
