<?xml version="1.0" encoding="utf-8"?>
<!-- Generator: Adobe Illustrator 16.0.4, SVG Export Plug-In . SVG Version: 6.00 Build 0)  -->
<!DOCTYPE svg PUBLIC "-//W3C//DTD SVG 1.1//EN" "http://www.w3.org/Graphics/SVG/1.1/DTD/svg11.dtd">
<svg version="1.1" xmlns="http://www.w3.org/2000/svg" xmlns:xlink="http://www.w3.org/1999/xlink" x="0px" y="0px" width="234px"
	 height="57.021px" viewBox="0 0 234 57.021" enable-background="new 0 0 234 57.021" xml:space="preserve">
<symbol  id="center" viewBox="-7 -6.25 14 12.5">
	<use xlink:href="#playcard-player"  width="14" height="12.5" x="-7" y="-6.25" overflow="visible"/>
	<text transform="matrix(1 0 0 -1 -2.8154 -2.5664)" font-family="'Seravek'" font-size="8">C</text>
	<polygon display="none" fill="none" points="-7,6 7,6 7,-6 -7,-6 	"/>
</symbol>
<symbol  id="playcard-player" viewBox="-7 -6.25 14 12.5">
	<path fill="#FFFFFF" stroke="#000000" stroke-width="0.5" stroke-miterlimit="10" d="M6,0c0-3.313-2.687-6-6-6s-6,2.687-6,6
		s2.687,6,6,6S6,3.313,6,0z"/>
	<polygon display="none" fill="none" points="-7,6 7,6 7,-6 -7,-6 	"/>
</symbol>
<symbol  id="player-blue" viewBox="-7 -6.25 14 12.5">
	<path fill="#FFFFFF" stroke="#000000" stroke-width="0.5" stroke-miterlimit="10" d="M6,0c0-3.313-2.687-6-6-6s-6,2.687-6,6
		s2.687,6,6,6S6,3.313,6,0z"/>
	<path fill="#55A4DB" d="M4,0c0-2.209-1.792-4-4-4s-4,1.791-4,4s1.792,4,4,4S4,2.209,4,0z"/>
	<polygon display="none" fill="none" points="-7,6 7,6 7,-6 -7,-6 	"/>
</symbol>
<symbol  id="player-g" viewBox="-7 -6.25 14 12.5">
	<path fill="#FFFFFF" stroke="#000000" stroke-width="0.5" stroke-miterlimit="10" d="M6,0c0-3.313-2.687-6-6-6s-6,2.687-6,6
		s2.687,6,6,6S6,3.313,6,0z"/>
	<path fill="#7FC347" d="M4,0c0-2.209-1.792-4-4-4s-4,1.791-4,4s1.792,4,4,4S4,2.209,4,0z"/>
	<polygon display="none" fill="none" points="-7,6 7,6 7,-6 -7,-6 	"/>
</symbol>
<symbol  id="player-gray" viewBox="-7 -6.25 14 12.5">
	<path opacity="0.5" fill="none" stroke="#000000" stroke-width="0.5" stroke-miterlimit="10" stroke-dasharray="2,2" d="M6,0
		c0-3.313-2.687-6-6-6s-6,2.687-6,6s2.687,6,6,6S6,3.313,6,0z"/>
	<path fill="#939598" d="M4,0c0-2.209-1.792-4-4-4s-4,1.791-4,4s1.792,4,4,4S4,2.209,4,0z"/>
	<polygon display="none" fill="none" points="-7,6 7,6 7,-6 -7,-6 	"/>
</symbol>
<symbol  id="player-orange" viewBox="-7 -6.25 14 12.5">
	<path fill="#FFFFFF" stroke="#000000" stroke-width="0.5" stroke-miterlimit="10" d="M6,0c0-3.313-2.687-6-6-6s-6,2.687-6,6
		s2.687,6,6,6S6,3.313,6,0z"/>
	<path fill="#F79226" d="M4,0c0-2.209-1.792-4-4-4s-4,1.791-4,4s1.792,4,4,4S4,2.209,4,0z"/>
	<polygon display="none" fill="none" points="-7,6 7,6 7,-6 -7,-6 	"/>
</symbol>
<symbol  id="player-red" viewBox="-7 -6.25 14 12.5">
	<path fill="#FFFFFF" stroke="#000000" stroke-width="0.5" stroke-miterlimit="10" d="M6,0c0-3.313-2.687-6-6-6s-6,2.687-6,6
		s2.687,6,6,6S6,3.313,6,0z"/>
	<path fill="#EE2D2F" d="M4,0c0-2.209-1.792-4-4-4s-4,1.791-4,4s1.792,4,4,4S4,2.209,4,0z"/>
	<polygon display="none" fill="none" points="-7,6 7,6 7,-6 -7,-6 	"/>
</symbol>
<g id="Guides">
</g>
<g id="Grids">
</g>
<g id="formation">
	
		<use xlink:href="#center"  width="14" height="12.5" x="-7" y="-6.25" transform="matrix(1.1449 0 0 -1.1449 118.1455 7.1558)" overflow="visible"/>
	
		<use xlink:href="#playcard-player"  width="14" height="12.5" x="-7" y="-6.25" transform="matrix(1.1449 0 0 -1.1449 97.5381 7.1558)" overflow="visible"/>
	
		<use xlink:href="#playcard-player"  width="14" height="12.5" x="-7" y="-6.25" transform="matrix(1.1449 0 0 -1.1449 76.9297 7.1558)" overflow="visible"/>
	
		<use xlink:href="#playcard-player"  width="14" height="12.5" x="-7" y="-6.25" transform="matrix(1.1449 0 0 -1.1449 138.7539 7.1558)" overflow="visible"/>
	
		<use xlink:href="#playcard-player"  width="14" height="12.5" x="-7" y="-6.25" transform="matrix(1.1449 0 0 -1.1449 118.1455 24.1221)" overflow="visible"/>
	
		<use xlink:href="#playcard-player"  width="14" height="12.5" x="-7" y="-6.25" transform="matrix(1.1449 0 0 -1.1449 159.3623 7.1558)" overflow="visible"/>
	
		<use xlink:href="#player-blue"  width="14" height="12.5" x="-7" y="-6.25" transform="matrix(1.1449 0 0 -1.1449 225.9854 21.1221)" overflow="visible"/>
	
		<use xlink:href="#player-g"  width="14" height="12.5" x="-7" y="-6.25" transform="matrix(1.1449 0 0 -1.1449 8.0146 7.1558)" overflow="visible"/>
	
		<use xlink:href="#player-gray"  width="14" height="12.5" x="-7" y="-6.25" transform="matrix(1.1449 0 0 -1.1449 60.3203 21.1221)" overflow="visible"/>
	
		<use xlink:href="#player-gray"  width="14" height="12.5" x="-7" y="-6.25" transform="matrix(1.1449 0 0 -1.1449 208.7627 21.1221)" overflow="visible"/>
	
		<use xlink:href="#player-gray"  width="14" height="12.5" x="-7" y="-6.25" transform="matrix(1.1449 0 0 -1.1449 95.248 49.0391)" overflow="visible"/>
	
		<use xlink:href="#player-gray"  width="14" height="12.5" x="-7" y="-6.25" transform="matrix(1.1449 0 0 -1.1449 23.7256 21.1221)" overflow="visible"/>
	
		<use xlink:href="#player-orange"  width="14" height="12.5" x="-7" y="-6.25" transform="matrix(1.1449 0 0 -1.1449 141.0439 49.0391)" overflow="visible"/>
	
		<use xlink:href="#player-red"  width="14" height="12.5" x="-7" y="-6.25" transform="matrix(1.1449 0 0 -1.1449 179.9707 7.1558)" overflow="visible"/>
</g>
<g id="plays">
	<g id="route-slant">
	</g>
</g>
<g id="yards">
</g>
<g id="dice">
</g>
</svg>
