<?xml version="1.0" encoding="utf-8"?>
<!-- Generator: Adobe Illustrator 16.0.4, SVG Export Plug-In . SVG Version: 6.00 Build 0)  -->
<!DOCTYPE svg PUBLIC "-//W3C//DTD SVG 1.1//EN" "http://www.w3.org/Graphics/SVG/1.1/DTD/svg11.dtd">
<svg version="1.1" xmlns="http://www.w3.org/2000/svg" xmlns:xlink="http://www.w3.org/1999/xlink" x="0px" y="0px" width="28px"
	 height="28px" viewBox="0 0 28 28" enable-background="new 0 0 28 28" xml:space="preserve">
<symbol  id="playcard-player" viewBox="-7 -6.25 14 12.5">
	<path fill="#FFFFFF" stroke="#000000" stroke-width="0.5" stroke-miterlimit="10" d="M6,0c0-3.313-2.687-6-6-6s-6,2.687-6,6
		s2.687,6,6,6S6,3.313,6,0z"/>
	<polygon display="none" fill="none" points="-7,6 7,6 7,-6 -7,-6 	"/>
</symbol>
<symbol  id="player-gray" viewBox="-7 -6.25 14 12.5">
	<path opacity="0.5" fill="none" stroke="#000000" stroke-width="0.5" stroke-miterlimit="10" stroke-dasharray="2,2" d="M6,0
		c0-3.313-2.687-6-6-6s-6,2.687-6,6s2.687,6,6,6S6,3.313,6,0z"/>
	<path fill="#939598" d="M4,0c0-2.209-1.792-4-4-4s-4,1.791-4,4s1.792,4,4,4S4,2.209,4,0z"/>
	<polygon display="none" fill="none" points="-7,6 7,6 7,-6 -7,-6 	"/>
</symbol>
<g id="Guides">
</g>
<g id="Grids">
</g>
<g id="formation">
	
		<use xlink:href="#player-gray"  width="14" height="12.5" x="-7" y="-6.25" transform="matrix(2 0 0 -2 14 14)" overflow="visible"/>
</g>
<g id="plays">
	<g id="route-slant">
	</g>
</g>
<g id="yards">
</g>
<g id="dice">
</g>
</svg>
